<?xml version="1.0" encoding="UTF-8"?>
<svg version="1.1" xmlns="http://www.w3.org/2000/svg" width="537" height="464">
<path d="M0 0 C2.17146805 4.3429361 1.22966856 10.1672356 1.25 14.9375 C1.270625 16.14341797 1.29125 17.34933594 1.3125 18.59179688 C1.32023437 20.32333008 1.32023437 20.32333008 1.328125 22.08984375 C1.3374707 23.15066162 1.34681641 24.21147949 1.35644531 25.30444336 C1 28 1 28 -0.34155273 29.80029297 C-2.80780674 31.58436072 -5.41546612 32.27869096 -8.3125 33.1875 C-31.86846609 41.11215439 -51.92802221 58.13370275 -65 79 C-65.69996094 80.10085937 -66.39992187 81.20171875 -67.12109375 82.3359375 C-83.51074704 109.41449511 -84.89557125 140.28480274 -78.19140625 170.6640625 C-73.19330716 188.56836414 -62.73586655 204.68098937 -50 218 C-49.46117187 218.60199219 -48.92234375 219.20398438 -48.3671875 219.82421875 C-36.07277348 233.07623788 -18.96074307 241.54190933 -2 247 C-1.33709961 247.21462891 -0.67419922 247.42925781 0.00878906 247.65039062 C18.60427986 253.37347768 41.37068599 253.58669394 60 248 C60.70624512 247.79600586 61.41249023 247.59201172 62.14013672 247.38183594 C78.10273808 242.71234173 91.19864177 235.53940249 104 225 C104.85207031 224.32582031 105.70414063 223.65164063 106.58203125 222.95703125 C127.59346431 205.40790218 140.48599368 178.03232606 143 151 C144.97381397 119.09858922 136.94707018 90.14685159 116.29003906 65.54516602 C115.02315978 64.02774001 113.79429308 62.47883525 112.56640625 60.9296875 C109.80265047 57.77471515 106.93083742 55.2448902 103.625 52.6875 C103.02067139 52.21747559 102.41634277 51.74745117 101.79370117 51.26318359 C91.95420632 43.76750979 81.38106657 37.82002678 70 33 C65.545 31.02 65.545 31.02 61 29 C61 19.76 61 10.52 61 1 C66.63492063 -0.12698413 66.63492063 -0.12698413 70.51953125 1.15234375 C71.3693457 1.43021729 72.21916016 1.70809082 73.09472656 1.99438477 C73.9915918 2.30561279 74.88845703 2.61684082 75.8125 2.9375 C76.7415918 3.25452881 77.67068359 3.57155762 78.62792969 3.89819336 C94.43557529 9.45637428 107.95127663 17.55249273 121 28 C122.36898437 29.07121094 122.36898437 29.07121094 123.765625 30.1640625 C129.50005732 34.72340623 134.39680074 39.3208497 139 45 C139.88898846 46.0105566 140.77976963 47.01953765 141.671875 48.02734375 C154.59625692 62.97469095 163.46354918 81.09161286 169 100 C169.19529297 100.64420898 169.39058594 101.28841797 169.59179688 101.95214844 C181.00730535 140.2536777 173.00254305 178.06390782 154.40380859 212.50878906 C143.15943608 232.4631503 124.21856887 252.81161392 103.484375 262.671875 C92.71263809 267.84420682 88.2705984 275.19232449 82.48095703 285.43017578 C80.06354693 289.6249761 77.42799109 293.67698667 74.8125 297.75 C70.86442439 303.97215194 67.03619883 310.25316324 63.28344727 316.59448242 C60.37074225 321.47556696 57.22247617 326.16830599 54.0222168 330.86401367 C49.54550415 337.52091555 45.54231504 344.45494531 41.55371094 351.41235352 C38.70035244 356.33931193 35.81221648 360.76498687 32 365 C31.01 364.67 30.02 364.34 29 364 C28.67 337.27 28.34 310.54 28 283 C20.74 282.34 13.48 281.68 6 281 C-6.95095398 278.26937717 -18.21867208 274.80067732 -30 269 C-30.7513623 268.64309082 -31.50272461 268.28618164 -32.27685547 267.91845703 C-43.79995205 262.42100438 -53.63803782 255.97552106 -63.22851562 247.54492188 C-64.47207003 246.46041081 -65.73290469 245.39554988 -67.00585938 244.34570312 C-67.64845703 243.81396484 -68.29105469 243.28222656 -68.953125 242.734375 C-69.53739258 242.25709961 -70.12166016 241.77982422 -70.72363281 241.28808594 C-72 240 -72 240 -72 238 C-72.99 237.67 -73.98 237.34 -75 237 C-76.39111328 235.5480957 -76.39111328 235.5480957 -77.8203125 233.67578125 C-78.35116455 232.98436035 -78.8820166 232.29293945 -79.42895508 231.58056641 C-79.9886499 230.83210449 -80.54834473 230.08364258 -81.125 229.3125 C-81.70467529 228.54083496 -82.28435059 227.76916992 -82.8815918 226.97412109 C-84.60355148 224.66052841 -86.30680989 222.33471252 -88 220 C-88.44778809 219.38334473 -88.89557617 218.76668945 -89.35693359 218.13134766 C-109.39341751 190.0577663 -117.07772813 152.14293558 -111.8125 118.25 C-107.69177685 93.98575403 -98.31221635 71.3263564 -83 52 C-82.34 51.13503906 -81.68 50.27007812 -81 49.37890625 C-73.45724021 39.63110579 -64.80666851 31.43384519 -55 24 C-54.14792969 23.33097656 -53.29585937 22.66195312 -52.41796875 21.97265625 C-39.45645275 12.08546761 -16.95032874 -0.53527354 0 0 Z " fill="#6B1499" transform="translate(230,75)"/>
<path d="M0 0 C0.77085937 -0.01417969 1.54171875 -0.02835938 2.3359375 -0.04296875 C5.06611494 0.2319126 6.4152193 0.52789104 8.625 2.1875 C11.56324935 7.73606432 12.05828641 12.22641119 12.01318359 18.43994141 C12.01844055 19.34001419 12.02369751 20.24008698 12.02911377 21.16743469 C12.04225359 24.12482357 12.0335985 27.08166872 12.0234375 30.0390625 C12.02545961 32.10216373 12.02837219 34.16526425 12.03213501 36.22836304 C12.03654991 40.54391308 12.03015278 44.8592764 12.01611328 49.17480469 C11.9990005 54.70416898 12.00888124 60.23309706 12.02683067 65.76244545 C12.03767266 70.01924933 12.03422061 74.27594981 12.0264473 78.53275681 C12.02444756 80.57170031 12.02689661 82.61065322 12.03388596 84.64958572 C12.04150953 87.49792611 12.02988431 90.34555987 12.01318359 93.19384766 C12.02229263 94.45481514 12.02229263 94.45481514 12.03158569 95.74125671 C11.96993015 101.42086991 10.8952295 104.74910535 6.9375 109 C3.54248573 110.74338571 0.31981217 110.73107078 -3.375 110.1875 C-7.24101268 108.50662492 -8.79115886 107.03277124 -10.375 103.1875 C-10.63226891 101.21280098 -10.63226891 101.21280098 -10.64242554 99.10232544 C-10.65095551 98.29773895 -10.65948547 97.49315247 -10.66827393 96.66418457 C-10.66691437 95.35338928 -10.66691437 95.35338928 -10.66552734 94.01611328 C-10.67224457 93.08882416 -10.67896179 92.16153503 -10.68588257 91.20614624 C-10.70488419 88.13998052 -10.70878785 85.07403344 -10.7109375 82.0078125 C-10.71736386 79.87555857 -10.7240921 77.74330553 -10.73110962 75.61105347 C-10.74308776 71.14058386 -10.74678988 66.67019156 -10.74560547 62.19970703 C-10.74540224 56.47412569 -10.77270643 50.74904049 -10.80714989 45.02357674 C-10.82939815 40.61918872 -10.83344364 36.21492049 -10.83238602 31.81048203 C-10.83474502 29.69977992 -10.84358532 27.58907465 -10.85905075 25.47842789 C-10.87866859 22.52449141 -10.87288897 19.57162994 -10.86083984 16.61767578 C-10.87207886 15.74786072 -10.88331787 14.87804565 -10.89489746 13.98187256 C-10.83756065 8.44415503 -9.98267379 5.44704334 -6.375 1.1875 C-4.04904054 0.02452027 -2.58776769 0.02149309 0 0 Z " fill="#6C159A" transform="translate(260.375,22.8125)"/>
<path d="M0 0 C0.75 1.5625 0.75 1.5625 1 4 C-0.13084437 6.50286409 -1.52139516 8.67007722 -3 11 C-3.66 11 -4.32 11 -5 11 C-5.0928125 12.11375 -5.0928125 12.11375 -5.1875 13.25 C-6.25149912 16.85122777 -7.91370672 17.96756296 -11 20 C-11.66 20 -12.32 20 -13 20 C-13.33 22.31 -13.66 24.62 -14 27 C-15.485 27.495 -15.485 27.495 -17 28 C-17 28.66 -17 29.32 -17 30 C-32.74742268 43 -32.74742268 43 -41 43 C-41.66 44.65 -42.32 46.3 -43 48 C-44.258125 48.0825 -45.51625 48.165 -46.8125 48.25 C-50.22114781 48.5890321 -50.22114781 48.5890321 -52.625 50.9375 C-53.305625 51.9584375 -53.305625 51.9584375 -54 53 C-59.15514027 55.05153541 -64.31612987 55.70881732 -69.78125 56.4375 C-73.01620917 56.91443538 -73.01620917 56.91443538 -76.0546875 58.05859375 C-79.12550052 59.04011356 -81.42053083 59.17533342 -84.625 59.0625 C-88.02872473 58.95285621 -90.7192129 59.17666071 -94 60 C-95.99830289 60.09231291 -97.99957227 60.13000107 -100 60.125 C-101.03125 60.12757813 -102.0625 60.13015625 -103.125 60.1328125 C-105.62361739 60.01738724 -107.60968446 59.65820283 -110 59 C-111.39394134 58.83707179 -112.78996246 58.69097906 -114.1875 58.5625 C-116.0746875 58.2840625 -116.0746875 58.2840625 -118 58 C-118.33 57.34 -118.66 56.68 -119 56 C-121.02463255 55.34786708 -121.02463255 55.34786708 -123 55 C-123 54.34 -123 53.68 -123 53 C-122.37125977 53.06928711 -121.74251953 53.13857422 -121.09472656 53.20996094 C-103.76249867 54.96884719 -84.84380255 56.0512418 -68 51 C-67.29375488 50.79600586 -66.58750977 50.59201172 -65.85986328 50.38183594 C-49.89726192 45.71234173 -36.80135823 38.53940249 -24 28 C-23.14792969 27.32582031 -22.29585938 26.65164063 -21.41796875 25.95703125 C-13.26999279 19.1516943 -4.79045774 9.58091548 0 0 Z " fill="#69318C" transform="translate(358,272)"/>
<path d="M0 0 C4 2 4 2 4.74164295 3.87595367 C5.18859232 7.55048541 5.14723642 11.23218648 5.14526367 14.92773438 C5.14862228 15.82897537 5.1519809 16.73021637 5.15544128 17.6587677 C5.1649384 20.63710916 5.16689362 23.61539435 5.16796875 26.59375 C5.17118161 28.66353377 5.1745457 30.7333173 5.17805481 32.80310059 C5.18404256 37.14071174 5.18589501 41.47830297 5.18530273 45.81591797 C5.185201 51.37787793 5.19886655 56.93971057 5.21607494 62.50164032 C5.22718355 66.77553903 5.22922231 71.04940681 5.22869301 75.32331848 C5.22987433 77.37425679 5.2343046 79.42519587 5.24202538 81.47612 C5.25180451 84.34159323 5.24895567 87.20678806 5.24291992 90.07226562 C5.24853943 90.92121902 5.25415894 91.77017242 5.25994873 92.64485168 C5.22186762 99.74663582 5.22186762 99.74663582 3 103 C2.01 102.67 1.02 102.34 0 102 C0 68.34 0 34.68 0 0 Z " fill="#71439C" transform="translate(267,26)"/>
<path d="M0 0 C0.66 0.33 1.32 0.66 2 1 C1.67 32.68 1.34 64.36 1 97 C0.01 97 -0.98 97 -2 97 C-2 65.32 -2 33.64 -2 1 C-1.34 0.67 -0.68 0.34 0 0 Z " fill="#71398D" transform="translate(252,29)"/>
<path d="M0 0 C0.33 0 0.66 0 1 0 C2.03638411 6.55297036 -1.57921116 10.83045753 -5 16.0625 C-6.20453064 17.95305902 -7.40895808 19.84368381 -8.61328125 21.734375 C-9.19932129 22.64380859 -9.78536133 23.55324219 -10.38916016 24.49023438 C-12.36699783 27.57180019 -14.2822707 30.68556697 -16.1875 33.8125 C-17.45792036 35.8752544 -18.72877812 37.93773946 -20 40 C-20.59723877 40.97259766 -20.59723877 40.97259766 -21.20654297 41.96484375 C-34.50052908 63.5895936 -34.50052908 63.5895936 -40 66 C-40 63 -40 63 -38 60 C-37.70800975 58.50760538 -37.46084048 57.00600342 -37.25 55.5 C-36.38421659 51.26728111 -36.38421659 51.26728111 -33.125 49 C-28.19277108 47.42168675 -28.19277108 47.42168675 -26 47 C-25.67 44.69 -25.34 42.38 -25 40 C-23.515 39.505 -23.515 39.505 -22 39 C-21.896875 38.113125 -21.79375 37.22625 -21.6875 36.3125 C-20.98187854 32.91268752 -19.87063987 30.88390313 -18 28 C-17.67 27.01 -17.34 26.02 -17 25 C-16.01 24.34 -15.02 23.68 -14 23 C-12.78715124 19.94570927 -12.78715124 19.94570927 -12 17 C-11.34 17 -10.68 17 -10 17 C-9.9175 16.46375 -9.835 15.9275 -9.75 15.375 C-8.72408685 12.12627502 -6.96345301 9.78155843 -5 7 C-4.55785156 6.35933594 -4.11570312 5.71867187 -3.66015625 5.05859375 C-2.47008682 3.35110283 -1.238044 1.67303244 0 0 Z " fill="#5F1B87" transform="translate(318,344)"/>
<path d="M0 0 C1.65 0 3.3 0 5 0 C7.17146805 4.3429361 6.22966856 10.1672356 6.25 14.9375 C6.270625 16.14341797 6.29125 17.34933594 6.3125 18.59179688 C6.31765625 19.74615234 6.3228125 20.90050781 6.328125 22.08984375 C6.3374707 23.15066162 6.34681641 24.21147949 6.35644531 25.30444336 C6 28 6 28 4.66064453 29.7980957 C2.17554464 31.59670593 -0.46025049 32.31990015 -3.375 33.25 C-10.74975721 35.76202667 -17.25380965 39.1114152 -24 43 C-24 41.35 -24 39.7 -24 38 C-22.865625 37.5875 -21.73125 37.175 -20.5625 36.75 C-16.90456616 35.43314602 -16.90456616 35.43314602 -16.0625 32.8125 C-16.041875 32.214375 -16.02125 31.61625 -16 31 C-15.030625 30.87625 -14.06125 30.7525 -13.0625 30.625 C-10.07144673 30.18459952 -7.09420749 29.69508784 -4.125 29.125 C-3.36445313 28.98320313 -2.60390625 28.84140625 -1.8203125 28.6953125 C-0.91925781 28.35113281 -0.91925781 28.35113281 0 28 C0.98043964 25.05868109 1.11621202 23.17498335 1.09765625 20.11328125 C1.09282227 18.7065918 1.09282227 18.7065918 1.08789062 17.27148438 C1.07951172 16.29501953 1.07113281 15.31855469 1.0625 14.3125 C1.05798828 13.32443359 1.05347656 12.33636719 1.04882812 11.31835938 C1.03704303 8.87884526 1.02059011 6.43945311 1 4 C-0.32 3.34 -1.64 2.68 -3 2 C-2.01 2 -1.02 2 0 2 C0 1.34 0 0.68 0 0 Z " fill="#5D1886" transform="translate(225,75)"/>
<path d="M0 0 C11.32995105 16.99492658 9.43688913 44.66024896 8 64 C6.02 64.495 6.02 64.495 4 65 C4.00580078 64.12529053 4.01160156 63.25058105 4.01757812 62.34936523 C4.05463411 52.24433178 3.82232905 42.16178307 3.5 32.0625 C3.45161299 30.492845 3.4034349 28.92318354 3.35546875 27.35351562 C3.23937551 23.56893204 3.12049722 19.78444582 3 16 C2.34 16 1.68 16 1 16 C0.86722656 15.43410156 0.73445313 14.86820313 0.59765625 14.28515625 C0.42105469 13.55167969 0.24445313 12.81820312 0.0625 12.0625 C-0.11152344 11.33160156 -0.28554688 10.60070312 -0.46484375 9.84765625 C-0.83887569 8.00030102 -0.83887569 8.00030102 -2 7 C-2.04080783 5.00041636 -2.04254356 2.99954746 -2 1 C-1.34 0.67 -0.68 0.34 0 0 Z " fill="#6B2E8D" transform="translate(396,168)"/>
<path d="M0 0 C-5.75 4 -5.75 4 -8 4 C-8 4.66 -8 5.32 -8 6 C-8.91813477 6.176521 -9.83626953 6.35304199 -10.78222656 6.53491211 C-14.1966226 7.19190897 -17.61082517 7.84989391 -21.02490234 8.50854492 C-22.50106321 8.79311971 -23.97729955 9.07730331 -25.45361328 9.36108398 C-27.57865155 9.76963511 -29.7034122 10.17960379 -31.828125 10.58984375 C-33.1059082 10.83597412 -34.38369141 11.08210449 -35.70019531 11.33569336 C-37.56467367 11.71104447 -39.42590669 12.10886014 -41.26855469 12.57983398 C-43.85080545 13.20646308 -46.34927906 13.1316268 -49 13.125 C-50.03125 13.12757813 -51.0625 13.13015625 -52.125 13.1328125 C-54.62361739 13.01738724 -56.60968446 12.65820283 -59 12 C-60.39394134 11.83707179 -61.78996246 11.69097906 -63.1875 11.5625 C-64.445625 11.376875 -65.70375 11.19125 -67 11 C-67.33 10.34 -67.66 9.68 -68 9 C-70.02463255 8.34786708 -70.02463255 8.34786708 -72 8 C-72 7.34 -72 6.68 -72 6 C-71.37125977 6.06928711 -70.74251953 6.13857422 -70.09472656 6.20996094 C-47.42531529 8.51046818 -26.39144255 7.68779729 -4.94921875 -0.109375 C-2 -1 -2 -1 0 0 Z " fill="#68278F" transform="translate(307,319)"/>
<path d="M0 0 C0.33 0.99 0.66 1.98 1 3 C2.32 2.01 3.64 1.02 5 0 C5.33 0.66 5.66 1.32 6 2 C4.89011719 3.04027344 4.89011719 3.04027344 3.7578125 4.1015625 C0.95258823 6.91074058 -1.06524652 9.9743874 -3.125 13.375 C-3.78757813 14.45523438 -4.45015625 15.53546875 -5.1328125 16.6484375 C-7.54015558 20.96956797 -9.43317404 25.29952213 -11 30 C-11.66 30.33 -12.32 30.66 -13 31 C-13.37309899 32.65821773 -13.70700977 34.32577014 -14 36 C-14.495 36.495 -14.495 36.495 -15 37 C-14.938125 37.86625 -14.87625 38.7325 -14.8125 39.625 C-15.01071261 43.19282703 -15.96852794 44.88859957 -17.84375 47.85546875 C-20.2301116 52.28152456 -21.52141428 57.21032604 -23 62 C-23.33 62 -23.66 62 -24 62 C-22.9800395 40.58082945 -12.88998053 16.79603523 0 0 Z " fill="#6A318F" transform="translate(143,132)"/>
<path d="M0 0 C0.268125 0.639375 0.53625 1.27875 0.8125 1.9375 C1.88667752 4.33131686 1.88667752 4.33131686 5 5 C6.80266269 8.41557141 7.218934 11.16865501 7 15 C7.99 15.33 8.98 15.66 10 16 C10 16.99 10 17.98 10 19 C10.76699219 19.06316406 11.53398437 19.12632812 12.32421875 19.19140625 C15 20 15 20 16.58203125 22.21484375 C17.19111328 23.56255859 17.19111328 23.56255859 17.8125 24.9375 C18.23144531 25.83339844 18.65039062 26.72929687 19.08203125 27.65234375 C20 30 20 30 20 32 C20.556875 32.061875 21.11375 32.12375 21.6875 32.1875 C25.00086472 33.35165517 26.70475296 35.39458444 29 38 C29.33 38.99 29.66 39.98 30 41 C30.66 41.33 31.32 41.66 32 42 C34.125 43.9375 34.125 43.9375 36 46 C36 46.66 36 47.32 36 48 C36.763125 48.0825 37.52625 48.165 38.3125 48.25 C41 49 41 49 42.875 50.875 C43.24625 51.57625 43.6175 52.2775 44 53 C43.67 53.99 43.34 54.98 43 56 C31.52173913 47.66604995 31.52173913 47.66604995 27 43 C27 42.34 27 41.68 27 41 C25.515 40.505 25.515 40.505 24 40 C22.60888672 38.5480957 22.60888672 38.5480957 21.1796875 36.67578125 C20.64843262 35.98347412 20.11717773 35.29116699 19.56982422 34.57788086 C18.73088623 33.45651733 18.73088623 33.45651733 17.875 32.3125 C17.2989502 31.54881104 16.72290039 30.78512207 16.12939453 29.99829102 C2.0367312 11.12243733 2.0367312 11.12243733 -1 1 C-0.67 0.67 -0.34 0.34 0 0 Z " fill="#6C3B85" transform="translate(131,272)"/>
<path d="M0 0 C2.65557731 0.23329371 5.31046351 0.47214951 7.96484375 0.71875 C9.85212127 0.89363286 11.74007107 1.06158095 13.62890625 1.21875 C14.80259766 1.32703125 14.80259766 1.32703125 16 1.4375 C16.70125 1.49808594 17.4025 1.55867188 18.125 1.62109375 C20 2 20 2 23 4 C23.2568576 6.51743521 23.31980055 8.7813217 23.2487793 11.29541016 C23.23946381 12.04672714 23.23014832 12.79804413 23.22055054 13.5721283 C23.18610798 16.06155917 23.13022814 18.55003104 23.07421875 21.0390625 C23.04619372 22.76254216 23.01950246 24.48604398 22.99409485 26.20956421 C22.92355541 30.75055326 22.83485081 35.29101458 22.74243164 39.831604 C22.65135458 44.46307489 22.57736069 49.09481468 22.50195312 53.7265625 C22.35140752 62.81805452 22.18168109 71.90908064 22 81 C21.67 81 21.34 81 21 81 C20.67 56.58 20.34 32.16 20 7 C12.74 6.34 5.48 5.68 -2 5 C-6.455 4.01 -6.455 4.01 -11 3 C-6.8204355 0.21362367 -4.85331323 1.20437488 0 2 C0 1.34 0 0.68 0 0 Z " fill="#AB88BF" transform="translate(238,351)"/>
<path d="M0 0 C0.33 0 0.66 0 1 0 C1.1953125 2.05078125 1.390625 4.1015625 1.5859375 6.15234375 C1.72257812 6.76207031 1.85921875 7.37179688 2 8 C2.66 8.33 3.32 8.66 4 9 C3.99214478 10.24873901 3.99214478 10.24873901 3.98413086 11.52270508 C3.96707775 14.61449935 3.95454435 17.70626964 3.94506836 20.7980957 C3.93757271 22.79314768 3.92486655 24.78817786 3.91210938 26.78320312 C3.90888672 28.03681641 3.90566406 29.29042969 3.90234375 30.58203125 C3.89710693 31.73936768 3.89187012 32.8967041 3.88647461 34.08911133 C3.86700539 37.06604411 3.86700539 37.06604411 5 40 C5.0806622 41.48123547 5.10761193 42.96582204 5.09765625 44.44921875 C5.09282227 45.72055664 5.09282227 45.72055664 5.08789062 47.01757812 C5.07951172 47.89865234 5.07113281 48.77972656 5.0625 49.6875 C5.05798828 50.58017578 5.05347656 51.47285156 5.04882812 52.39257812 C5.03704983 54.59511987 5.02060164 56.79752599 5 59 C3.06418703 55.34351972 2.23622303 51.94806927 1.4375 47.875 C1.18871094 46.63492188 0.93992187 45.39484375 0.68359375 44.1171875 C-0.76891794 35.9121059 -1.16167749 27.75717755 -1.125 19.4375 C-1.12886719 18.55642578 -1.13273437 17.67535156 -1.13671875 16.76757812 C-1.12835689 11.10241603 -0.71886213 5.61967616 0 0 Z " fill="#67348A" transform="translate(118,194)"/>
<path d="M0 0 C6.09129328 0.42829406 11.31181134 1.90580721 17 4.0625 C17.81726563 4.36833008 18.63453125 4.67416016 19.4765625 4.98925781 C25.11520948 7.15175749 30.59125598 9.56507037 36 12.25 C36.66386719 12.5787915 37.32773437 12.90758301 38.01171875 13.24633789 C41.10007912 14.83219799 43.750033 16.31989225 46 19 C42.91863039 19.92718689 41.38328753 20.14268368 38.32421875 19.00390625 C37.45410156 18.52824219 36.58398438 18.05257812 35.6875 17.5625 C34.80449219 17.08941406 33.92148437 16.61632812 33.01171875 16.12890625 C32.34785156 15.75636719 31.68398438 15.38382813 31 15 C31 14.34 31 13.68 31 13 C30.01 13 29.02 13 28 13 C28 12.34 28 11.68 28 11 C27.2575 10.87625 26.515 10.7525 25.75 10.625 C23 10 23 10 20.875 8.875 C18.84955586 7.66806769 18.84955586 7.66806769 16 9 C15.67 8.34 15.34 7.68 15 7 C13.32693883 6.08834417 13.32693883 6.08834417 11.3125 5.375 C10.64863281 5.11460938 9.98476563 4.85421875 9.30078125 4.5859375 C6.42663465 3.75320835 6.42663465 3.75320835 1 4 C0.67 12.25 0.34 20.5 0 29 C-0.33 29 -0.66 29 -1 29 C-1.02465881 25.03069011 -1.04284023 21.06140966 -1.05493164 17.09204102 C-1.05997057 15.74079614 -1.06680177 14.38955674 -1.07543945 13.03833008 C-1.08752419 11.09979566 -1.09269828 9.161222 -1.09765625 7.22265625 C-1.10289307 6.05484619 -1.10812988 4.88703613 -1.11352539 3.68383789 C-1 1 -1 1 0 0 Z " fill="#7A3E9B" transform="translate(292,75)"/>
<path d="M0 0 C0.22034372 4.05185473 0.41646082 8.10415635 0.59204102 12.15820312 C0.65471377 13.53155388 0.72352732 14.9046409 0.79907227 16.27734375 C1.29622424 25.40625514 0.81214881 33.27029986 -2 42 C-2.33 41.34 -2.66 40.68 -3 40 C-3.66 40 -4.32 40 -5 40 C-4.93127642 34.62437333 -4.84338684 29.24953601 -4.73754883 23.87451172 C-4.70424974 22.0451735 -4.67623343 20.2157313 -4.65356445 18.38623047 C-4.62010923 15.75963944 -4.56780037 13.13400559 -4.51171875 10.5078125 C-4.50532883 9.68693146 -4.4989389 8.86605042 -4.49235535 8.02029419 C-4.43237305 5.71533203 -4.43237305 5.71533203 -4 2 C-1 0 -1 0 0 0 Z " fill="#601D87" transform="translate(378,197)"/>
<path d="M0 0 C0.66 0.33 1.32 0.66 2 1 C1.98889694 2.1835054 1.97779388 3.3670108 1.96635437 4.58638 C1.86511161 15.72548231 1.7900986 26.86449161 1.74093914 38.00394917 C1.71481622 43.73126168 1.67936844 49.45820356 1.62280273 55.18530273 C1.56857993 60.70959821 1.53859979 66.23353663 1.52561378 71.75807762 C1.51635645 73.86850801 1.49827944 75.97891829 1.47134972 78.08919716 C1.43518909 81.03947198 1.43004924 83.98826089 1.43237305 86.9387207 C1.41439667 87.81625504 1.39642029 88.69378937 1.37789917 89.59791565 C1.397103 91.84277983 1.45633761 93.82220672 2 96 C4.18601474 98.23119064 4.18601474 98.23119064 7 99 C10.23556199 98.78150791 10.23556199 98.78150791 13 98 C12.67 99.65 12.34 101.3 12 103 C3.07081668 103.45402627 3.07081668 103.45402627 -1 100 C-1.8125 97.8125 -1.8125 97.8125 -2 96 C-1.34 96 -0.68 96 0 96 C0 64.32 0 32.64 0 0 Z " fill="#671787" transform="translate(253,30)"/>
<path d="M0 0 C0.66 0 1.32 0 2 0 C2.33 0.99 2.66 1.98 3 3 C1.74371624 5.21359614 0.45051954 7.23231081 -1 9.3125 C-7.84916651 19.54942629 -13.14652669 30.27203775 -17 42 C-17.33 42 -17.66 42 -18 42 C-17.64429078 34.12104083 -16.30126158 26.2103745 -13 19 C-10.86328125 17.625 -10.86328125 17.625 -9 17 C-9 15.68 -9 14.36 -9 13 C-8.34 13 -7.68 13 -7 13 C-6.731875 12.236875 -6.46375 11.47375 -6.1875 10.6875 C-5.04865495 8.11011382 -4.18583329 6.73045136 -2 5 C-1.34 5 -0.68 5 0 5 C0 3.35 0 1.7 0 0 Z " fill="#622886" transform="translate(168,142)"/>
<path d="M0 0 C3.28327074 0.5618712 4.67269512 1.34841676 6.69140625 3.984375 C7.16126953 4.59023437 7.63113281 5.19609375 8.11523438 5.8203125 C8.59283203 6.45710938 9.07042969 7.09390625 9.5625 7.75 C10.04396484 8.37132812 10.52542969 8.99265625 11.02148438 9.6328125 C16.18838927 16.37039962 16.18838927 16.37039962 18 20 C17.1875 22.8125 17.1875 22.8125 16 25 C15.3503125 24.0409375 15.3503125 24.0409375 14.6875 23.0625 C13.08760823 20.73253997 13.08760823 20.73253997 10 20 C9.938125 19.2575 9.87625 18.515 9.8125 17.75 C9.23221326 14.81248679 9.23221326 14.81248679 6.625 13.125 C2.49945361 9.78527197 1.02341311 5.11706556 0 0 Z " fill="#642088" transform="translate(366,120)"/>
<path d="M0 0 C2.125 0.9375 2.125 0.9375 4 2 C2.6875 3.5 2.6875 3.5 1 5 C0.01 5 -0.98 5 -2 5 C-2.103125 5.61875 -2.20625 6.2375 -2.3125 6.875 C-3 9 -3 9 -6 11 C-6.99 11 -7.98 11 -9 11 C-8.67 13.31 -8.34 15.62 -8 18 C-8.99 18 -9.98 18 -11 18 C-13.95935005 19.20223596 -15.85031096 20.66338148 -18 23 C-19 24 -20 25 -21 26 C-21.66 25.67 -22.32 25.34 -23 25 C-7.38268507 3.69134253 -7.38268507 3.69134253 0 0 Z " fill="#6D368F" transform="translate(167,106)"/>
<path d="M0 0 C2.31 0 4.62 0 7 0 C6.01 0.33 5.02 0.66 4 1 C4.01160156 2.15757813 4.02320313 3.31515625 4.03515625 4.5078125 C4.04454077 6.04687338 4.05364026 7.58593601 4.0625 9.125 C4.07087891 9.88554688 4.07925781 10.64609375 4.08789062 11.4296875 C4.10646509 15.7389644 3.86117265 19.75516474 3 24 C3.78375 24.12375 4.5675 24.2475 5.375 24.375 C8 25 8 25 10 27 C6.7 26.67 3.4 26.34 0 26 C0 17.42 0 8.84 0 0 Z " fill="#5D1A84" transform="translate(292,78)"/>
<path d="M0 0 C0.75 1.5625 0.75 1.5625 1 4 C-0.13084437 6.50286409 -1.52139516 8.67007722 -3 11 C-3.66 11 -4.32 11 -5 11 C-5.0928125 12.11375 -5.0928125 12.11375 -5.1875 13.25 C-6.25149912 16.85122777 -7.91370672 17.96756296 -11 20 C-11.66 20 -12.32 20 -13 20 C-13.33 22.31 -13.66 24.62 -14 27 C-15.32 27 -16.64 27 -18 27 C-20.20072961 27.72510734 -20.20072961 27.72510734 -22 29 C-22.33 29.99 -22.66 30.98 -23 32 C-25.97 32.495 -25.97 32.495 -29 33 C-26.70941099 30.63305802 -24.43908331 28.36318229 -21.8984375 26.26171875 C-13.49485549 19.21311169 -4.9409179 9.8818358 0 0 Z " fill="#6E428F" transform="translate(358,272)"/>
<path d="M0 0 C0.33 0 0.66 0 1 0 C1.33 21.45 1.66 42.9 2 65 C3.98 64.34 5.96 63.68 8 63 C6.6302836 66.99500618 4.74277578 69.80009492 2 73 C1.01 72.67 0.02 72.34 -1 72 C-0.67 48.24 -0.34 24.48 0 0 Z " fill="#6D3687" transform="translate(260,367)"/>
<path d="M0 0 C3.95784848 7.77042685 5.41759191 15.79882158 6.47265625 24.41015625 C6.64667969 25.26480469 6.82070312 26.11945313 7 27 C7.66 27.33 8.32 27.66 9 28 C9 30.31 9 32.62 9 35 C8.01 35.495 8.01 35.495 7 36 C1.48696359 23.928642 0.02710126 13.22541427 0 0 Z " fill="#65248C" transform="translate(122,236)"/>
<path d="M0 0 C0.886875 0.78375 1.77375 1.5675 2.6875 2.375 C10.90648059 9.39364266 19.25644103 16.21634056 29 21 C28.34 21.66 27.68 22.32 27 23 C25.68 22.34 24.36 21.68 23 21 C23 20.34 23 19.68 23 19 C21.02 19 19.04 19 17 19 C17 18.34 17 17.68 17 17 C16.4225 16.896875 15.845 16.79375 15.25 16.6875 C12.64338842 15.89103535 11.0264689 14.80934723 9 13 C9 12.34 9 11.68 9 11 C7.35 10.67 5.7 10.34 4 10 C4.66 9.67 5.32 9.34 6 9 C6 8.34 6 7.68 6 7 C5.38125 6.95875 4.7625 6.9175 4.125 6.875 C3.42375 6.58625 2.7225 6.2975 2 6 C0.75 2.9375 0.75 2.9375 0 0 Z " fill="#703E92" transform="translate(179,293)"/>
<path d="M0 0 C0.91007812 0.10183594 1.82015625 0.20367187 2.7578125 0.30859375 C3.45648438 0.39238281 4.15515625 0.47617188 4.875 0.5625 C1.39479806 2.37564224 -2.19178597 3.86537336 -5.8125 5.375 C-11.46443062 7.75841545 -16.85893172 10.41400415 -22.125 13.5625 C-22.125 11.9125 -22.125 10.2625 -22.125 8.5625 C-20.4234375 7.94375 -20.4234375 7.94375 -18.6875 7.3125 C-15.02956616 5.99564602 -15.02956616 5.99564602 -14.1875 3.375 C-14.166875 2.776875 -14.14625 2.17875 -14.125 1.5625 C-12.454375 1.3459375 -12.454375 1.3459375 -10.75 1.125 C-2.00735294 -0.23161765 -2.00735294 -0.23161765 0 0 Z " fill="#611E8A" transform="translate(223.125,104.4375)"/>
<path d="M0 0 C3.81936528 1.55603771 6.26044438 3.95604931 9 7 C9 7.66 9 8.32 9 9 C9.66 9.33 10.32 9.66 11 10 C13.125 11.9375 13.125 11.9375 15 14 C15 14.66 15 15.32 15 16 C15.763125 16.0825 16.52625 16.165 17.3125 16.25 C20 17 20 17 21.875 18.875 C22.24625 19.57625 22.6175 20.2775 23 21 C22.67 21.99 22.34 22.98 22 24 C10.52173913 15.66604995 10.52173913 15.66604995 6 11 C6 10.34 6 9.68 6 9 C5.01 8.67 4.02 8.34 3 8 C2.814375 6.8553125 2.814375 6.8553125 2.625 5.6875 C2.11897208 2.79732864 2.11897208 2.79732864 0 0 Z " fill="#6A3B8E" transform="translate(152,304)"/>
<path d="M0 0 C0.33 0 0.66 0 1 0 C1.46190245 5.20410095 0.37646006 7.61942138 -2.75 11.75 C-3.44609375 12.69359375 -4.1421875 13.6371875 -4.859375 14.609375 C-6.86436013 16.84851898 -8.2343111 17.928607 -11 19 C-11 16 -11 16 -9 13 C-8.70800975 11.50760538 -8.46084048 10.00600342 -8.25 8.5 C-7.76953125 6.09375 -7.76953125 6.09375 -7 4 C-3.9375 2 -3.9375 2 -1 1 C-0.67 0.67 -0.34 0.34 0 0 Z " fill="#611B8E" transform="translate(289,391)"/>
<path d="M0 0 C0.66 0 1.32 0 2 0 C1.34 1.65 0.68 3.3 0 5 C-1.8871875 5.12375 -1.8871875 5.12375 -3.8125 5.25 C-7.22114781 5.5890321 -7.22114781 5.5890321 -9.625 7.9375 C-10.07875 8.618125 -10.5325 9.29875 -11 10 C-16.15514027 12.05153541 -21.31612987 12.70881732 -26.78125 13.4375 C-30.02658086 13.92108403 -30.02658086 13.92108403 -33.1328125 15.0546875 C-36.96321815 16.31757329 -39.99310399 16.13816883 -44 16 C-41.24198852 14.16132568 -39.88210065 13.59028295 -36.76171875 12.9296875 C-35.94123047 12.75566406 -35.12074219 12.58164062 -34.27539062 12.40234375 C-33.42138672 12.22832031 -32.56738281 12.05429687 -31.6875 11.875 C-30.84509766 11.69324219 -30.00269531 11.51148438 -29.13476562 11.32421875 C-24.68332121 10.39842969 -20.57418242 9.77614115 -16 10 C-16 9.34 -16 8.68 -16 8 C-10.64993984 4.71232131 -6.31631828 2.40316925 0 2 C0 1.34 0 0.68 0 0 Z " fill="#641F8C" transform="translate(315,315)"/>
<path d="M0 0 C3.94727588 -0.17942163 6.5980513 -0.09350689 10 2 C9.67 3.32 9.34 4.64 9 6 C12.3 6.33 15.6 6.66 19 7 C19 7.66 19 8.32 19 9 C19.99 9 20.98 9 22 9 C22 9.66 22 10.32 22 11 C16.14016367 10.48334032 11.39106117 9.24718923 6 6.9375 C5.32066406 6.65583984 4.64132813 6.37417969 3.94140625 6.08398438 C2.29060213 5.39808689 0.64474531 4.70030171 -1 4 C-0.67 2.68 -0.34 1.36 0 0 Z " fill="#702F94" transform="translate(205,342)"/>
<path d="M0 0 C0.62366455 0.06566162 1.2473291 0.13132324 1.88989258 0.19897461 C9.81629277 0.98176683 17.72852994 1.31081665 25.6875 1.5625 C27.61625977 1.62727539 27.61625977 1.62727539 29.58398438 1.69335938 C32.72257494 1.79836798 35.86123004 1.90052405 39 2 C35.40625783 4.24184504 32.40592171 4.2577875 28.22265625 4.265625 C26.24555664 4.26949219 26.24555664 4.26949219 24.22851562 4.2734375 C23.20238159 4.26715332 23.20238159 4.26715332 22.15551758 4.26074219 C20.07278182 4.25005277 17.99091191 4.26064354 15.90820312 4.2734375 C14.58884766 4.27085937 13.26949219 4.26828125 11.91015625 4.265625 C10.70496338 4.26336914 9.49977051 4.26111328 8.25805664 4.25878906 C5.08339082 4.00662377 2.85791963 3.35895411 0 2 C0 1.34 0 0.68 0 0 Z " fill="#8962A0" transform="translate(235,325)"/>
<path d="M0 0 C0.33 0 0.66 0 1 0 C1.1953125 2.05078125 1.390625 4.1015625 1.5859375 6.15234375 C1.72257812 6.76207031 1.85921875 7.37179688 2 8 C2.66 8.33 3.32 8.66 4 9 C4 16.59 4 24.18 4 32 C3.67 32 3.34 32 3 32 C2.34 27.38 1.68 22.76 1 18 C0.67 21.96 0.34 25.92 0 30 C-0.33 30 -0.66 30 -1 30 C-1.02945031 26.68751922 -1.04694801 23.37507289 -1.0625 20.0625 C-1.07087891 19.13630859 -1.07925781 18.21011719 -1.08789062 17.25585938 C-1.10837786 11.41699697 -0.75429787 5.79086947 0 0 Z " fill="#8450A4" transform="translate(118,194)"/>
<path d="M0 0 C2.21323558 3.31985337 3.56863329 6.74216465 5 10.4375 C6.91342622 15.43101706 6.91342622 15.43101706 9.1796875 20.26953125 C10.39562367 22.83457754 10.12683261 25.20968258 10 28 C6.67639089 25.30945929 5.64092709 21.85261143 4 18 C3.34 17.67 2.68 17.34 2 17 C-0.18220673 11.30201576 -0.21915315 6.05106191 0 0 Z " fill="#663684" transform="translate(150,244)"/>
<path d="M0 0 C0.66 0 1.32 0 2 0 C-0.06084484 5.47047373 -2.99262882 10.25662898 -6 15.25 C-6.5465625 16.17296875 -7.093125 17.0959375 -7.65625 18.046875 C-8.1821875 18.9234375 -8.708125 19.8 -9.25 20.703125 C-9.96929687 21.90437012 -9.96929687 21.90437012 -10.703125 23.12988281 C-12 25 -12 25 -14 26 C-14 24.68 -14 23.36 -14 22 C-13.34 22 -12.68 22 -12 22 C-11.67 19.69 -11.34 17.38 -11 15 C-10.01 14.67 -9.02 14.34 -8 14 C-7.938125 13.113125 -7.87625 12.22625 -7.8125 11.3125 C-6.80893087 7.22102584 -5.08407444 5.78318913 -2 3 C-1.34 2.01 -0.68 1.02 0 0 Z " fill="#652C88" transform="translate(304,369)"/>
<path d="M0 0 C0.99 0.33 1.98 0.66 3 1 C3.53086034 4.79033395 4.04798469 8.58241555 4.5625 12.375 C4.71396484 13.45523438 4.86542969 14.53546875 5.02148438 15.6484375 C5.16005859 16.6796875 5.29863281 17.7109375 5.44140625 18.7734375 C5.57232666 19.72653809 5.70324707 20.67963867 5.83813477 21.66162109 C6 24 6 24 5 26 C4.34 26 3.68 26 3 26 C-0.75058597 17.40490715 -0.28499689 9.19378855 0 0 Z " fill="#7F4F9C" transform="translate(145,220)"/>
<path d="M0 0 C1.051875 0.14695312 1.051875 0.14695312 2.125 0.296875 C3.176875 0.42835938 3.176875 0.42835938 4.25 0.5625 C6.125 1.046875 6.125 1.046875 8.125 3.046875 C10.19374034 3.6893985 10.19374034 3.6893985 12.125 4.046875 C12.125 5.036875 12.125 6.026875 12.125 7.046875 C13.115 7.376875 14.105 7.706875 15.125 8.046875 C11.23865454 9.12772792 9.47516103 9.19324071 5.6953125 7.61328125 C4.55835938 6.95199219 3.42140625 6.29070312 2.25 5.609375 C1.65703125 5.27099609 1.0640625 4.93261719 0.453125 4.58398438 C-0.99812602 3.75302613 -2.43781734 2.90193471 -3.875 2.046875 C-1.875 0.046875 -1.875 0.046875 0 0 Z " fill="#692C8C" transform="translate(192.875,335.953125)"/>
<path d="M0 0 C-5.75 4 -5.75 4 -8 4 C-8 4.66 -8 5.32 -8 6 C-11.0601404 6.53537872 -14.12333716 7.0506887 -17.1875 7.5625 C-18.05181641 7.71396484 -18.91613281 7.86542969 -19.80664062 8.02148438 C-27.74688824 9.32964778 -27.74688824 9.32964778 -32 8 C-32 7.67 -32 7.34 -32 7 C-30.63681641 6.76216797 -30.63681641 6.76216797 -29.24609375 6.51953125 C-20.83005904 4.95716994 -12.99516537 2.81642377 -4.94921875 -0.109375 C-2 -1 -2 -1 0 0 Z " fill="#83589B" transform="translate(307,319)"/>
<path d="M0 0 C4.62 1.65 9.24 3.3 14 5 C14 6.32 14 7.64 14 9 C15.98 9 17.96 9 20 9 C20 10.32 20 11.64 20 13 C18.22555943 12.40651139 16.45554447 11.79977999 14.6875 11.1875 C13.70136719 10.85105469 12.71523437 10.51460938 11.69921875 10.16796875 C9.07917816 9.03426088 7.86932282 8.08136541 6 6 C4.700625 5.2575 4.700625 5.2575 3.375 4.5 C1 3 1 3 0 0 Z " fill="#652187" transform="translate(208,315)"/>
<path d="M0 0 C-6 6 -12 12 -18 18 C-17.67 16.02 -17.34 14.04 -17 12 C-16.01 12 -15.02 12 -14 12 C-13.9175 11.05125 -13.835 10.1025 -13.75 9.125 C-13 6 -13 6 -11.0625 4.5625 C-9 4 -9 4 -7 5 C-6.67 3.35 -6.34 1.7 -6 0 C-3 -1 -3 -1 0 0 Z " fill="#704293" transform="translate(189,126)"/>
<path d="M0 0 C0.33 0 0.66 0 1 0 C1.061875 0.763125 1.12375 1.52625 1.1875 2.3125 C1.78367452 5.15510745 1.78367452 5.15510745 4.1875 6.875 C7.58133253 8.23253301 9.50597866 7.89381941 13 7 C12.67 8.65 12.34 10.3 12 12 C3.07081668 12.45402627 3.07081668 12.45402627 -1 9 C-1.8125 6.8125 -1.8125 6.8125 -2 5 C-1.34 5 -0.68 5 0 5 C0 3.35 0 1.7 0 0 Z " fill="#681F86" transform="translate(253,121)"/>
<path d="M0 0 C-0.33 0.99 -0.66 1.98 -1 3 C-2.9609375 3.625 -2.9609375 3.625 -5.375 4 C-9.05370371 4.57517192 -10.45608112 5.33595162 -13 8 C-14.99551782 8.35919321 -16.99548879 8.69496569 -19 9 C-19.33 9.66 -19.66 10.32 -20 11 C-22.32156597 11.40729228 -24.6568787 11.74438677 -27 12 C-22.82239443 7.22761669 -6.12350588 -3.06175294 0 0 Z " fill="#7B4998" transform="translate(212,81)"/>
<path d="M0 0 C0.99 0.33 1.98 0.66 3 1 C-5.261959 13.66970387 -5.261959 13.66970387 -10 19 C-10.33 18.34 -10.66 17.68 -11 17 C-11.66 16.67 -12.32 16.34 -13 16 C-11.68 16 -10.36 16 -9 16 C-8.814375 15.2265625 -8.814375 15.2265625 -8.625 14.4375 C-7.81358372 11.27297649 -6.9054087 8.13875015 -6 5 C-5.38125 4.9175 -4.7625 4.835 -4.125 4.75 C-1.81562433 4.18741541 -1.81562433 4.18741541 -0.75 1.9375 C-0.37875 0.9784375 -0.37875 0.9784375 0 0 Z " fill="#743F94" transform="translate(381,287)"/>
<path d="M0 0 C0.57234375 0.71929687 1.1446875 1.43859375 1.734375 2.1796875 C3.18781451 3.9889691 4.65543569 5.78700124 6.140625 7.5703125 C6.83671875 8.41335938 7.5328125 9.25640625 8.25 10.125 C8.95640625 10.97320312 9.6628125 11.82140625 10.390625 12.6953125 C12 15 12 15 12 18 C11.67 17.34 11.34 16.68 11 16 C10.34 16 9.68 16 9 16 C8.67 16.99 8.34 17.98 8 19 C7.34 19 6.68 19 6 19 C5.34 15.37 4.68 11.74 4 8 C3.34 8 2.68 8 2 8 C0.93224776 6.03533587 -0.06553465 4.03144641 -1 2 C-0.67 1.34 -0.34 0.68 0 0 Z " fill="#764694" transform="translate(164,274)"/>
<path d="M0 0 C0.33 0 0.66 0 1 0 C1 10.03035476 -3.31685279 17.40178439 -8 26 C-8.66 26 -9.32 26 -10 26 C-9.60243882 23.21707173 -9.16386362 21.25324378 -7.625 18.875 C-6.01134724 16.02007588 -5.30511419 13.66113257 -4.5 10.5 C-3.49141248 6.56650866 -2.49282317 3.28599418 0 0 Z " fill="#612E84" transform="translate(393,260)"/>
<path d="M0 0 C1.65 0 3.3 0 5 0 C7.17425477 4.34850954 6.18496474 10.22357366 6.1875 15 C6.19974609 16.21429688 6.21199219 17.42859375 6.22460938 18.6796875 C6.22654297 19.83726563 6.22847656 20.99484375 6.23046875 22.1875 C6.23457764 23.25355469 6.23868652 24.31960937 6.24291992 25.41796875 C6 28 6 28 4 30 C3.80383391 25.5420032 3.61952932 21.08359465 3.4375 16.625 C3.38142578 15.35398437 3.32535156 14.08296875 3.26757812 12.7734375 C3.19506836 10.95585938 3.19506836 10.95585938 3.12109375 9.1015625 C3.05039673 7.42054443 3.05039673 7.42054443 2.97827148 5.70556641 C3 3 3 3 4 1 C2.68 0.67 1.36 0.34 0 0 Z " fill="#AD92BC" transform="translate(225,75)"/>
<path d="M0 0 C4.98770821 0.42268714 9.28723333 1.2327125 14 3 C13.67 3.66 13.34 4.32 13 5 C9.04 4.67 5.08 4.34 1 4 C0.67 12.25 0.34 20.5 0 29 C-0.33 29 -0.66 29 -1 29 C-1.02465881 25.03069011 -1.04284023 21.06140966 -1.05493164 17.09204102 C-1.05997057 15.74079614 -1.06680177 14.38955674 -1.07543945 13.03833008 C-1.08752419 11.09979566 -1.09269828 9.161222 -1.09765625 7.22265625 C-1.10289307 6.05484619 -1.10812988 4.88703613 -1.11352539 3.68383789 C-1 1 -1 1 0 0 Z " fill="#8B68A0" transform="translate(292,75)"/>
<path d="M0 0 C-1.46051811 2.92103622 -3.72704719 3.10293177 -6.6640625 4.13671875 C-9.89540683 5.33091122 -12.99505518 6.77818769 -16.1171875 8.23046875 C-18 9 -18 9 -20 9 C-20.33 9.66 -20.66 10.32 -21 11 C-23.32156597 11.40729228 -25.6568787 11.74438677 -28 12 C-27.34 11.67 -26.68 11.34 -26 11 C-26 10.34 -26 9.68 -26 9 C-22.535 8.505 -22.535 8.505 -19 8 C-18.67 7.01 -18.34 6.02 -18 5 C-15.67684969 4.2986716 -13.34210921 3.63514826 -11 3 C-10.34 2.46375 -9.68 1.9275 -9 1.375 C-6.05485762 -0.64978539 -3.47538909 -0.20050322 0 0 Z " fill="#631D89" transform="translate(211,84)"/>
<path d="M0 0 C0.66 0 1.32 0 2 0 C2 9.24 2 18.48 2 28 C1.67 28 1.34 28 1 28 C-2.73333333 5.46666667 -2.73333333 5.46666667 0 0 Z " fill="#5B277D" transform="translate(145,199)"/>
<path d="M0 0 C3.63 0.33 7.26 0.66 11 1 C11.33 1.99 11.66 2.98 12 4 C12.721875 3.938125 13.44375 3.87625 14.1875 3.8125 C17.55798641 4.03719909 19.20869578 5.16361564 22 7 C22.99 7.33 23.98 7.66 25 8 C25.6875 10.0625 25.6875 10.0625 26 12 C22.1495637 10.50697368 18.42358967 8.82092304 14.6875 7.0625 C9.84907886 4.81373381 5.02959712 2.77515193 0 1 C0 0.67 0 0.34 0 0 Z " fill="#6A3689" transform="translate(292,104)"/>
<path d="M0 0 C0.33 0.99 0.66 1.98 1 3 C2.32 2.01 3.64 1.02 5 0 C5.33 0.66 5.66 1.32 6 2 C4.33333333 3.66666667 2.66666667 5.33333333 1 7 C0.154375 7.9075 -0.69125 8.815 -1.5625 9.75 C-3.98553865 11.98665106 -4.91281075 12.3995319 -8 13 C-7.23302204 11.58124235 -6.46123222 10.16508548 -5.6875 8.75 C-5.04361328 7.56664062 -5.04361328 7.56664062 -4.38671875 6.359375 C-3.0603786 4.10272866 -1.61115776 2.06001403 0 0 Z " fill="#703195" transform="translate(143,132)"/>
<path d="M0 0 C6.28199181 3.27756095 11.55515231 7.48636368 17 12 C15 13 15 13 12.125 12.3125 C8.85986004 10.94114122 7.38720457 9.54635154 5 7 C2.86690808 5.76487921 2.86690808 5.76487921 1 5 C1 4.34 1 3.68 1 3 C0.34 2.67 -0.32 2.34 -1 2 C-0.67 1.34 -0.34 0.68 0 0 Z " fill="#6E388A" transform="translate(338,94)"/>
<path d="M0 0 C5.35603121 0.42551068 9.6235017 1.86690924 14.4375 4.0625 C15.07365234 4.34416016 15.70980469 4.62582031 16.36523438 4.91601562 C17.91363051 5.60289812 19.45733357 6.30034407 21 7 C20.34 7.66 19.68 8.32 19 9 C17.58208592 8.54554036 16.16571954 8.08625056 14.75 7.625 C13.96109375 7.36976562 13.1721875 7.11453125 12.359375 6.8515625 C10 6 10 6 7.890625 4.8359375 C5.84481989 3.67792046 5.84481989 3.67792046 3 5 C2.67 4.34 2.34 3.68 2 3 C1.01 2.34 0.02 1.68 -1 1 C-0.67 0.67 -0.34 0.34 0 0 Z " fill="#75498B" transform="translate(305,79)"/>
<path d="M0 0 C0.33 0 0.66 0 1 0 C1.33 2.64 1.66 5.28 2 8 C3.98 7.34 5.96 6.68 8 6 C6.6302836 9.99500618 4.74277578 12.80009492 2 16 C1.01 15.67 0.02 15.34 -1 15 C-0.67 10.05 -0.34 5.1 0 0 Z " fill="#774B8C" transform="translate(260,424)"/>
<path d="M0 0 C0.33 0 0.66 0 1 0 C1.71442552 11.42270824 2.37448837 22.60231949 1 34 C0.67 34 0.34 34 0 34 C-0.66 28.72 -1.32 23.44 -2 18 C-1.34 18 -0.68 18 0 18 C-0.08378906 17.3709375 -0.16757812 16.741875 -0.25390625 16.09375 C-0.9231681 10.4685618 -0.93127689 5.58766133 0 0 Z " fill="#AD90C0" transform="translate(403,198)"/>
<path d="M0 0 C0.91145054 2.97022221 1.01801972 5.06485586 0.44140625 8.109375 C0.30283203 8.86347656 0.16425781 9.61757812 0.02148438 10.39453125 C-0.12998047 11.17183594 -0.28144531 11.94914063 -0.4375 12.75 C-0.58509766 13.54277344 -0.73269531 14.33554688 -0.88476562 15.15234375 C-1.24903966 17.10297246 -1.62352512 19.0516893 -2 21 C-2.99 21.33 -3.98 21.66 -5 22 C-5.51408746 14.28868816 -3.89072156 8.15134329 -1 1 C-0.67 0.67 -0.34 0.34 0 0 Z " fill="#612086" transform="translate(124,181)"/>
<path d="M0 0 C2.66908074 5.33816149 0.52019365 11.58431011 -1 17 C-1.66 17 -2.32 17 -3 17 C-4.80411967 14.24075815 -5.0127245 13.11027897 -4.625 9.75 C-4.41875 8.8425 -4.2125 7.935 -4 7 C-3.34 7 -2.68 7 -2 7 C-2 5.02 -2 3.04 -2 1 C-1.34 0.67 -0.68 0.34 0 0 Z " fill="#642690" transform="translate(150,176)"/>
<path d="M0 0 C0.99 0.66 1.98 1.32 3 2 C4.90522135 2.37603053 6.82503875 2.68100136 8.75 2.9375 C13.65427977 3.68147448 17.57662809 4.78831405 22 7 C22 7.33 22 7.66 22 8 C18.37 8 14.74 8 11 8 C11 7.34 11 6.68 11 6 C10.01 6 9.02 6 8 6 C8 5.34 8 4.68 8 4 C6.9171875 4.309375 6.9171875 4.309375 5.8125 4.625 C2.55358415 5.05952211 0.91695496 4.41680669 -2 3 C-2 2.34 -2 1.68 -2 1 C-1.34 0.67 -0.68 0.34 0 0 Z " fill="#5D1A87" transform="translate(216,345)"/>
<path d="M0 0 C6.36846267 4.24564178 10.77949792 11.14651775 14 18 C13.01 18 12.02 18 11 18 C7 12.74285714 7 12.74285714 7 10 C6.01 10 5.02 10 4 10 C3.32845067 8.71086513 2.66291141 7.41859796 2 6.125 C1.62875 5.40570313 1.2575 4.68640625 0.875 3.9453125 C0 2 0 2 0 0 Z " fill="#7C4C97" transform="translate(370,123)"/>
<path d="M0 0 C0.99 0.33 1.98 0.66 3 1 C3 1.66 3 2.32 3 3 C3.66 3.33 4.32 3.66 5 4 C1.04 7.96 -2.92 11.92 -7 16 C-7.33 14.68 -7.66 13.36 -8 12 C-7.01 12 -6.02 12 -5 12 C-4.67 10.35 -4.34 8.7 -4 7 C-2.68 6.67 -1.36 6.34 0 6 C0.33 4.68 0.66 3.36 1 2 C0.34 1.67 -0.32 1.34 -1 1 C-0.67 0.67 -0.34 0.34 0 0 Z " fill="#8245A2" transform="translate(364,305)"/>
<path d="M0 0 C0.33 1.32 0.66 2.64 1 4 C1.99 3.01 2.98 2.02 4 1 C4.08226668 4.04386724 3.97608217 6.07175348 3 9 C1.37667033 10.38576923 -0.28724465 11.72641268 -2 13 C-2 12.01 -2 11.02 -2 10 C-2.99 10.33 -3.98 10.66 -5 11 C-3.55049545 7.2089881 -1.84827434 3.6125362 0 0 Z " fill="#661890" transform="translate(364,261)"/>
<path d="M0 0 C0.66 0 1.32 0 2 0 C2.33 0.99 2.66 1.98 3 3 C1.66671253 5.45419287 0.30463222 7.69404097 -1.25 10 C-1.65863281 10.6290625 -2.06726563 11.258125 -2.48828125 11.90625 C-4.43683779 14.86354482 -6.33488578 17.64639264 -9 20 C-8.04480124 13.58448595 -6.6935518 9.576213 -2 5 C-1.34 5 -0.68 5 0 5 C0 3.35 0 1.7 0 0 Z " fill="#794C97" transform="translate(168,142)"/>
<path d="M0 0 C4.29500117 0.47722235 6.24620428 2.83313492 9 6 C13.12346723 11.7961945 13.12346723 11.7961945 12.75 15.4375 C12.5025 15.953125 12.255 16.46875 12 17 C9.15117747 13.48388571 6.41751228 9.9054798 3.75 6.25 C3.04359375 5.28578125 2.3371875 4.3215625 1.609375 3.328125 C0 1 0 1 0 0 Z " fill="#653885" transform="translate(349,143)"/>
<path d="M0 0 C5.65370024 3.61836815 9.2430054 7.45396035 13 13 C11.68 13 10.36 13 9 13 C9 12.34 9 11.68 9 11 C7.02 10.34 5.04 9.68 3 9 C3 8.01 3 7.02 3 6 C2.01 5.67 1.02 5.34 0 5 C0 3.35 0 1.7 0 0 Z " fill="#825598" transform="translate(355,107)"/>
<path d="M0 0 C1.98 0 3.96 0 6 0 C3.14469286 3.88185804 0.1867866 6.54737608 -3.75 9.3125 C-4.73484375 10.00988281 -5.7196875 10.70726562 -6.734375 11.42578125 C-7.48203125 11.94527344 -8.2296875 12.46476562 -9 13 C-9.66 12.67 -10.32 12.34 -11 12 C-10.67 11.34 -10.34 10.68 -10 10 C-9.01 10 -8.02 10 -7 10 C-6.773125 9.21625 -6.54625 8.4325 -6.3125 7.625 C-5 5 -5 5 -2.375 3.6875 C-1.59125 3.460625 -0.8075 3.23375 0 3 C0 2.01 0 1.02 0 0 Z " fill="#7E4FA0" transform="translate(348,322)"/>
<path d="M0 0 C0.66 0 1.32 0 2 0 C1.42381249 5.14595054 0.25256722 9.55078055 -1.5625 14.4375 C-2.01753906 15.67371094 -2.47257812 16.90992188 -2.94140625 18.18359375 C-3.29074219 19.11300781 -3.64007813 20.04242188 -4 21 C-5.23222446 17.30332661 -5.4545807 13.84826078 -5 10 C-3.625 7.875 -3.625 7.875 -2 6 C-1.27648573 4.01985568 -0.59734611 2.02178685 0 0 Z " fill="#865BA5" transform="translate(398,247)"/>
<path d="M0 0 C0.66 0 1.32 0 2 0 C2 1.32 2 2.64 2 4 C2.5775 4.061875 3.155 4.12375 3.75 4.1875 C6.94710041 5.34200848 8.1436532 7.21547979 10 10 C10 10.99 10 11.98 10 13 C10.66 13 11.32 13 12 13 C12.33 15.97 12.66 18.94 13 22 C12.34 22 11.68 22 11 22 C10.938125 20.989375 10.87625 19.97875 10.8125 18.9375 C10.1680216 14.29346444 7.97530116 11.55584773 5 8 C4.34 8 3.68 8 3 8 C3 7.01 3 6.02 3 5 C1.68 4.67 0.36 4.34 -1 4 C-0.67 2.68 -0.34 1.36 0 0 Z " fill="#5E1986" transform="translate(350,139)"/>
<path d="M0 0 C0.66 0.33 1.32 0.66 2 1 C1.67 2.32 1.34 3.64 1 5 C0.34 5 -0.32 5 -1 5 C-3.94173792 6.23363203 -5.85095758 7.66408433 -8 10 C-9 11 -10 12 -11 13 C-11.66 12.67 -12.32 12.34 -13 12 C-11.76238177 10.34483581 -10.50942545 8.70113202 -9.25 7.0625 C-8.55390625 6.14597656 -7.8578125 5.22945313 -7.140625 4.28515625 C-4.95083726 1.94751788 -4.0760029 1.42127866 -1 1 C-0.67 0.67 -0.34 0.34 0 0 Z " fill="#5E1E87" transform="translate(157,119)"/>
<path d="M0 0 C0.99 0.33 1.98 0.66 3 1 C-2.94 10.405 -2.94 10.405 -9 20 C-9.33 18.68 -9.66 17.36 -10 16 C-9.34 16 -8.68 16 -8 16 C-7.896875 15.071875 -7.79375 14.14375 -7.6875 13.1875 C-6.97641216 9.89063819 -6.49186196 9.07655163 -4 7 C-3.67 6.34 -3.34 5.68 -3 5 C-2.34 5 -1.68 5 -1 5 C-0.67 3.35 -0.34 1.7 0 0 Z " fill="#875AA0" transform="translate(316,349)"/>
<path d="M0 0 C2.875 0.5625 2.875 0.5625 6 2 C7.375 5.625 7.375 5.625 8 9 C9.32 9.33 10.64 9.66 12 10 C12 10.66 12 11.32 12 12 C9.8125 11.9375 9.8125 11.9375 7 11 C5.51728618 9.28561215 4.31959171 7.51127281 3.11328125 5.59375 C2.07639069 3.83938228 2.07639069 3.83938228 0 3 C0 2.01 0 1.02 0 0 Z " fill="#621E8B" transform="translate(173,290)"/>
<path d="M0 0 C0.66 0 1.32 0 2 0 C4.71391278 4.77357872 6.56561146 8.34388537 6 14 C5.01 13.67 4.02 13.34 3 13 C3 11.68 3 10.36 3 9 C2.34 8.67 1.68 8.34 1 8 C0.26924352 5.6859378 -0.40138258 3.35171131 -1 1 C-0.67 0.67 -0.34 0.34 0 0 Z " fill="#5F2180" transform="translate(385,146)"/>
<path d="M0 0 C1.32 0 2.64 0 4 0 C3.67 0.99 3.34 1.98 3 3 C2.01 3 1.02 3 0 3 C0 3.66 0 4.32 0 5 C-0.5775 5.0825 -1.155 5.165 -1.75 5.25 C-4.6159304 6.20531013 -5.9990764 7.78469173 -8 10 C-8.66 9.67 -9.32 9.34 -10 9 C-8.55609075 5.19333016 -6.65047197 3.73397418 -3 2 C-2.34 2.33 -1.68 2.66 -1 3 C-0.67 2.01 -0.34 1.02 0 0 Z " fill="#632985" transform="translate(178,98)"/>
<path d="M0 0 C-0.66 1.65 -1.32 3.3 -2 5 C-2.99 4.67 -3.98 4.34 -5 4 C-7.16666667 4.66666667 -7.16666667 4.66666667 -9 6 C-9.33 6.99 -9.66 7.98 -10 9 C-11.98 9.33 -13.96 9.66 -16 10 C-5.5 -0.80882353 -5.5 -0.80882353 0 0 Z " fill="#794B9E" transform="translate(345,295)"/>
<path d="M0 0 C0.268125 0.639375 0.53625 1.27875 0.8125 1.9375 C1.88667752 4.33131686 1.88667752 4.33131686 5 5 C7.01430083 8.71055417 7.19402245 11.82851735 7 16 C2.86232737 11.56677932 1.04471126 6.60120371 -1 1 C-0.67 0.67 -0.34 0.34 0 0 Z " fill="#754293" transform="translate(131,272)"/>
<path d="M0 0 C3.01345872 2.43020865 3.93592581 3.71905931 4.8125 7.5625 C5 11 5 11 4 14 C3.34 14 2.68 14 2 14 C1.67 14.66 1.34 15.32 1 16 C1.020625 14.865625 1.04125 13.73125 1.0625 12.5625 C1.41577477 9.18424326 1.41577477 9.18424326 0 8 C-0.14115161 5.32941149 -0.04247107 2.67567762 0 0 Z " fill="#611989" transform="translate(372,180)"/>
<path d="M0 0 C1.41623216 -0.05447047 2.83308191 -0.09300508 4.25 -0.125 C5.03890625 -0.14820312 5.8278125 -0.17140625 6.640625 -0.1953125 C9.20731941 0.0171622 10.7916067 0.71345895 13 2 C12.67 3.98 12.34 5.96 12 8 C11.484375 7.360625 10.96875 6.72125 10.4375 6.0625 C7.34064377 3.44208319 4.97932377 3.30610183 1 3 C0.67 2.01 0.34 1.02 0 0 Z " fill="#7D4C93" transform="translate(256,23)"/>
<path d="M0 0 C0.33 0.66 0.66 1.32 1 2 C1.99 2 2.98 2 4 2 C4 2.66 4 3.32 4 4 C3.34 4 2.68 4 2 4 C0.92461259 7.06389337 0.92461259 7.06389337 0.1875 10.5625 C-1 14 -1 14 -5 16 C-3.35 10.72 -1.7 5.44 0 0 Z " fill="#765295" transform="translate(370,243)"/>
<path d="M0 0 C0.33 0.66 0.66 1.32 1 2 C1.66 2 2.32 2 3 2 C3.433125 3.2065625 3.433125 3.2065625 3.875 4.4375 C4.73262568 7.1326468 4.73262568 7.1326468 7 8 C7 10.31 7 12.62 7 15 C6.01 15.495 6.01 15.495 5 16 C4.1605118 13.89828133 3.32860344 11.79353375 2.5 9.6875 C2.0359375 8.51574219 1.571875 7.34398437 1.09375 6.13671875 C0 3 0 3 0 0 Z " fill="#744290" transform="translate(124,256)"/>
<path d="M0 0 C0.33 0 0.66 0 1 0 C1.1979005 3.87454177 1.3814709 7.7496362 1.5625 11.625 C1.61857422 12.71941406 1.67464844 13.81382812 1.73242188 14.94140625 C1.78076172 16.00488281 1.82910156 17.06835938 1.87890625 18.1640625 C1.94960327 19.62513428 1.94960327 19.62513428 2.02172852 21.11572266 C1.99868166 24.17499807 1.57784025 26.9999001 1 30 C-1 28 -1 28 -1.13525391 25.20263672 C-1.08288574 24.04006348 -1.03051758 22.87749023 -0.9765625 21.6796875 C-0.925 20.42285156 -0.8734375 19.16601562 -0.8203125 17.87109375 C-0.75543074 16.53905165 -0.69032366 15.2070205 -0.625 13.875 C-0.56676177 12.53519706 -0.50945844 11.19535313 -0.453125 9.85546875 C-0.31129726 6.56979268 -0.15985087 3.28484064 0 0 Z " fill="#9F7CC7" transform="translate(374,204)"/>
<path d="M0 0 C2.375 0.3125 2.375 0.3125 5 1 C7 4 7 4 6.625 7.1875 C6.41875 8.115625 6.2125 9.04375 6 10 C2.46413986 6.82679218 0.41421969 4.83256305 0 0 Z " fill="#6B3A93" transform="translate(343,133)"/>
<path d="M0 0 C6.15222436 0.43173504 9.81917949 1.65405342 15 5 C14.67 5.66 14.34 6.32 14 7 C13.34 6.67 12.68 6.34 12 6 C11.67 6.66 11.34 7.32 11 8 C9.16399255 6.85845641 7.33125195 5.71165684 5.5 4.5625 C4.4790625 3.92441406 3.458125 3.28632812 2.40625 2.62890625 C1.6121875 2.09136719 0.818125 1.55382812 0 1 C0 0.67 0 0.34 0 0 Z " fill="#774597" transform="translate(318,116)"/>
<path d="M0 0 C3.76610404 5.64915606 4.22755952 10.40077399 4 17 C3.34 17 2.68 17 2 17 C-0.01167675 11.21642935 -0.22084624 6.09781001 0 0 Z " fill="#612984" transform="translate(150,244)"/>
<path d="M0 0 C1.953125 0.52083333 3.90625 1.04166667 5.859375 1.5625 C8.28901861 2.13349349 8.28901861 2.13349349 12 2 C12 2.66 12 3.32 12 4 C12.99 4 13.98 4 15 4 C15 4.66 15 5.32 15 6 C9.13190493 5.47606294 4.45126259 4.23891142 -1 2 C-0.67 1.34 -0.34 0.68 0 0 Z " fill="#8760A5" transform="translate(212,347)"/>
<path d="M0 0 C0.66 0.33 1.32 0.66 2 1 C1.67 1.99 1.34 2.98 1 4 C0.34 4 -0.32 4 -1 4 C-0.67 5.65 -0.34 7.3 0 9 C-0.99 9.33 -1.98 9.66 -3 10 C-2.25 2.25 -2.25 2.25 0 0 Z M-4 10 C-3 13 -3 13 -3.77734375 14.82421875 C-4.8515625 16.54947917 -5.92578125 18.27473958 -7 20 C-8.1092904 16.67212881 -8.01557588 15.3006216 -7 12 C-6.01 11.34 -5.02 10.68 -4 10 Z " fill="#5E1A8A" transform="translate(372,247)"/>
<path d="M0 0 C0.96205088 6.37358711 1.10655578 12.55929529 1 19 C-1.96656949 13.50312124 -3.4036063 7.25589769 -3 1 C-1 0 -1 0 0 0 Z " fill="#813F9C" transform="translate(122,234)"/>
<path d="M0 0 C0.99 0 1.98 0 3 0 C2.67 0.99 2.34 1.98 2 3 C1.78310282 8.21930913 1.78310282 8.21930913 2.625 13.3125 C2.74875 13.869375 2.8725 14.42625 3 15 C2.01 16.485 2.01 16.485 1 18 C0.49595192 15.89679937 -0.00310508 13.79240209 -0.5 11.6875 C-0.91765625 9.92986328 -0.91765625 9.92986328 -1.34375 8.13671875 C-2 5 -2 5 -2 2 C-1.34 2 -0.68 2 0 2 C0 1.34 0 0.68 0 0 Z " fill="#895FA9" transform="translate(371,177)"/>
<path d="M0 0 C0.33 0.66 0.66 1.32 1 2 C1.66 2 2.32 2 3 2 C2.67 5.96 2.34 9.92 2 14 C1.67 14 1.34 14 1 14 C1 12.02 1 10.04 1 8 C0.34 8 -0.32 8 -1 8 C-1.33 8.66 -1.66 9.32 -2 10 C-2.25 3.375 -2.25 3.375 0 0 Z " fill="#834FA2" transform="translate(146,191)"/>
<path d="M0 0 C0.99 0 1.98 0 3 0 C1.44298069 4.67105792 -1.08447373 8.08705685 -4 12 C-5.04449911 8.86650268 -4.93423645 8.01031744 -4 5 C-3.34 5 -2.68 5 -2 5 C-1.7834375 4.0409375 -1.7834375 4.0409375 -1.5625 3.0625 C-1 1 -1 1 0 0 Z " fill="#7E489C" transform="translate(287,395)"/>
<path d="M0 0 C-1.64178265 4.77609498 -4.26546702 8.79382904 -7 13 C-7.33 11.68 -7.66 10.36 -8 9 C-7.34 9 -6.68 9 -6 9 C-5.8453125 7.329375 -5.8453125 7.329375 -5.6875 5.625 C-5.460625 4.42875 -5.23375 3.2325 -5 2 C-2 0 -2 0 0 0 Z " fill="#8B60A5" transform="translate(298,382)"/>
<path d="M0 0 C9.59453303 2.70615034 9.59453303 2.70615034 13 7 C12.01 7.33 11.02 7.66 10 8 C7.7734375 6.85546875 7.7734375 6.85546875 5.375 5.1875 C4.57835937 4.64480469 3.78171875 4.10210937 2.9609375 3.54296875 C1 2 1 2 0 0 Z " fill="#7F4C99" transform="translate(175,328)"/>
<path d="M0 0 C3.82964655 1.56022637 6.32190489 3.87555571 9 7 C9 8.32 9 9.64 9 11 C8.01 11 7.02 11 6 11 C6 10.34 6 9.68 6 9 C5.01 8.67 4.02 8.34 3 8 C2.814375 6.8553125 2.814375 6.8553125 2.625 5.6875 C2.11897208 2.79732864 2.11897208 2.79732864 0 0 Z " fill="#713D96" transform="translate(152,304)"/>
<path d="M0 0 C0.66 0.66 1.32 1.32 2 2 C1.67 2.66 1.34 3.32 1 4 C0.01 4 -0.98 4 -2 4 C-2.33 5.65 -2.66 7.3 -3 9 C-4.98 9 -6.96 9 -9 9 C-7.25 6 -7.25 6 -5 3 C-3.68 3 -2.36 3 -1 3 C-0.67 2.01 -0.34 1.02 0 0 Z " fill="#5A1A86" transform="translate(358,313)"/>
<path d="M0 0 C-3.46741134 2.95749791 -6.86873527 5.07848152 -11 7 C-11 5.35 -11 3.7 -11 2 C-7.17679443 0.57741188 -4.08718695 -0.24042276 0 0 Z " fill="#82559E" transform="translate(212,111)"/>
<path d="M0 0 C0.33 0.99 0.66 1.98 1 3 C-0.36125 2.938125 -0.36125 2.938125 -1.75 2.875 C-4.8782046 2.99531556 -6.38614006 3.3914708 -9 5 C-9 4.34 -9 3.68 -9 3 C-9.99 2.67 -10.98 2.34 -12 2 C-10.75579353 1.4654744 -9.50429064 0.94791389 -8.25 0.4375 C-7.55390625 0.14746094 -6.8578125 -0.14257812 -6.140625 -0.44140625 C-3.647556 -1.09196987 -2.35999701 -1.02095523 0 0 Z M-11 5 C-9 6 -9 6 -9 6 Z " fill="#7B3E9A" transform="translate(225,77)"/>
<path d="M0 0 C4.62 1.65 9.24 3.3 14 5 C14 5.33 14 5.66 14 6 C5.21276596 6.44680851 5.21276596 6.44680851 1 3 C0.67 2.01 0.34 1.02 0 0 Z " fill="#72478D" transform="translate(208,315)"/>
<path d="M0 0 C0.66 0.33 1.32 0.66 2 1 C1.67 1.66 1.34 2.32 1 3 C0.34 2.67 -0.32 2.34 -1 2 C-0.67 1.34 -0.34 0.68 0 0 Z M-3.1875 2.625 C-2.465625 2.74875 -1.74375 2.8725 -1 3 C-1.33 3.66 -1.66 4.32 -2 5 C-2.99 5 -3.98 5 -5 5 C-5.66 6.32 -6.32 7.64 -7 9 C-8.32 9 -9.64 9 -11 9 C-6.69230769 3.09230769 -6.69230769 3.09230769 -3.1875 2.625 Z " fill="#754597" transform="translate(163,112)"/>
<path d="M0 0 C0.99 0.33 1.98 0.66 3 1 C2.01 2.485 2.01 2.485 1 4 C1 5.32 1 6.64 1 8 C0.360625 8.28875 -0.27875 8.5775 -0.9375 8.875 C-3.15206079 9.82823451 -3.15206079 9.82823451 -4 12 C-4.99 11.67 -5.98 11.34 -7 11 C-4.25 6.125 -4.25 6.125 -2 5 C-1.27840576 3.35636866 -0.60648579 1.68949614 0 0 Z " fill="#61178B" transform="translate(383,279)"/>
<path d="M0 0 C1.82976016 3.10996778 2.20629302 5.18182882 1.9765625 8.765625 C1.89921875 10.09980469 1.89921875 10.09980469 1.8203125 11.4609375 C1.75585938 12.38132813 1.69140625 13.30171875 1.625 14.25 C1.56828125 15.18585938 1.5115625 16.12171875 1.453125 17.0859375 C1.31197212 19.39143448 1.1605965 21.69578928 1 24 C0.67 24 0.34 24 0 24 C-0.1958691 20.18788097 -0.38029565 16.37529466 -0.5625 12.5625 C-0.61857422 11.47388672 -0.67464844 10.38527344 -0.73242188 9.26367188 C-0.78076172 8.22919922 -0.82910156 7.19472656 -0.87890625 6.12890625 C-0.9260376 5.17056885 -0.97316895 4.21223145 -1.02172852 3.22485352 C-1 1 -1 1 0 0 Z " fill="#5E2C84" transform="translate(375,198)"/>
<path d="M0 0 C0.5625 1.9375 0.5625 1.9375 1 4 C-0.89488952 5.89488952 -3.57139146 5.18019112 -6.08984375 5.23046875 C-8 5 -8 5 -10 3 C-6.6828589 1.5783681 -3.55780196 0.60990891 0 0 Z " fill="#6F3E88" transform="translate(265,128)"/>
<path d="M0 0 C1.3125 2.0625 1.3125 2.0625 2 4 C-0.64 3.67 -3.28 3.34 -6 3 C-6.33 2.01 -6.66 1.02 -7 0 C-4.25509788 -1.37245106 -2.87939419 -0.93580311 0 0 Z " fill="#611888" transform="translate(324,113)"/>
<path d="M0 0 C0.33 1.32 0.66 2.64 1 4 C-2.08809695 5.76462683 -3.23312136 6 -7 6 C-7.33 6.66 -7.66 7.32 -8 8 C-8.66 8 -9.32 8 -10 8 C-8.48502075 3.75805811 -4.70198172 0 0 0 Z " fill="#9066AD" transform="translate(185,93)"/>
<path d="M0 0 C1.41805831 0.28482368 2.83440379 0.57818144 4.25 0.875 C5.03890625 1.03742188 5.8278125 1.19984375 6.640625 1.3671875 C8.96831144 1.99150075 10.89031952 2.84838542 13 4 C11.02 4.66 9.04 5.32 7 6 C6.67 5.34 6.34 4.68 6 4 C2.97065509 3.34227572 2.97065509 3.34227572 0 3 C0 2.01 0 1.02 0 0 Z " fill="#8D5CAC" transform="translate(222,321)"/>
<path d="M0 0 C1.91302307 3.26613695 2.35674661 5.99445248 2.625 9.75 C2.69976562 10.73484375 2.77453125 11.7196875 2.8515625 12.734375 C2.92503906 13.85585937 2.92503906 13.85585937 3 15 C0.55369339 12.11967125 -0.42276419 10.13821183 -0.75 6.375 C-0.82734375 5.59898437 -0.9046875 4.82296875 -0.984375 4.0234375 C-1 2 -1 2 0 0 Z " fill="#9B6CB3" transform="translate(400,182)"/>
<path d="M0 0 C3.79588866 0.54226981 5.47211993 2.20127563 8 5 C7.01 5 6.02 5 5 5 C4.67 5.66 4.34 6.32 4 7 C2.35 5.68 0.7 4.36 -1 3 C-0.67 2.01 -0.34 1.02 0 0 Z " fill="#642188" transform="translate(338,128)"/>
<path d="M0 0 C0.33 0.66 0.66 1.32 1 2 C0.67 2.66 0.34 3.32 0 4 C-0.66 4 -1.32 4 -2 4 C-2.99 6.97 -3.98 9.94 -5 13 C-5.99 13 -6.98 13 -8 13 C-8 12.34 -8 11.68 -8 11 C-7.34 11 -6.68 11 -6 11 C-5.896875 10.278125 -5.79375 9.55625 -5.6875 8.8125 C-4.93217477 5.72253314 -3.80862024 3.60441314 -2 1 C-1.34 0.67 -0.68 0.34 0 0 Z " fill="#611C87" transform="translate(272,418)"/>
<path d="M0 0 C-5.94873431 3.33709486 -11.29614911 4.82832297 -18 3 C-18 2.67 -18 2.34 -18 2 C-15.56421213 1.46969932 -13.12694025 0.95047688 -10.6875 0.4375 C-9.65206055 0.21030273 -9.65206055 0.21030273 -8.59570312 -0.02148438 C-5.24455934 -0.71761569 -3.30465928 -1.10155309 0 0 Z " fill="#A97BBF" transform="translate(293,324)"/>
<path d="M0 0 C2.97 0 5.94 0 9 0 C5.92399354 1.53800323 3.18345656 2.71207724 -0.0625 3.75 C-0.91972656 4.03359375 -1.77695313 4.3171875 -2.66015625 4.609375 C-5 5 -5 5 -8 3 C-5.69 3 -3.38 3 -1 3 C-0.67 2.01 -0.34 1.02 0 0 Z " fill="#733A8F" transform="translate(219,105)"/>
<path d="M0 0 C2 3 2 3 1.75 6.375 C1.10626078 9.48640622 0.30944157 12.11922854 -1 15 C-1.33 15 -1.66 15 -2 15 C-1.03644647 4.44191344 -1.03644647 4.44191344 0 0 Z " fill="#82589D" transform="translate(121,179)"/>
<path d="M0 0 C0 3.38878512 -0.64361198 4.39757217 -2.4375 7.1875 C-2.88996094 7.90292969 -3.34242188 8.61835938 -3.80859375 9.35546875 C-4.20175781 9.89816406 -4.59492188 10.44085938 -5 11 C-5.33 11 -5.66 11 -6 11 C-6.20086443 7.28400809 -6.1519437 6.22791555 -4 3 C-3.34 3 -2.68 3 -2 3 C-2 2.34 -2 1.68 -2 1 C-1.34 0.67 -0.68 0.34 0 0 Z " fill="#956FB2" transform="translate(274,419)"/>
<path d="M0 0 C1.5121867 3.02437339 1.17263369 5.66241534 1 9 C0 11.4375 0 11.4375 -1 13 C-1.66 12.67 -2.32 12.34 -3 12 C-2.88648483 10.18674449 -2.75887039 8.37436643 -2.625 6.5625 C-2.55539063 5.55316406 -2.48578125 4.54382813 -2.4140625 3.50390625 C-2.27742187 2.67761719 -2.14078125 1.85132813 -2 1 C-1.34 0.67 -0.68 0.34 0 0 Z " fill="#5D1981" transform="translate(150,176)"/>
<path d="M0 0 C0.66 0.66 1.32 1.32 2 2 C1.319375 2.5259375 1.319375 2.5259375 0.625 3.0625 C-1.64661334 5.77096206 -2.16798854 8.60795328 -3 12 C-3.66 12 -4.32 12 -5 12 C-4.50769231 4.61538462 -4.50769231 4.61538462 -1.9375 1.5 C-1.298125 1.005 -0.65875 0.51 0 0 Z " fill="#5F1A8A" transform="translate(295,379)"/>
<path d="M0 0 C1.1055189 0.93590504 2.20935453 1.87379858 3.3125 2.8125 C3.92738281 3.33457031 4.54226562 3.85664063 5.17578125 4.39453125 C6.85424679 5.87172469 8.43882034 7.40039131 10 9 C9.01 9.33 8.02 9.66 7 10 C6.67 9.01 6.34 8.02 6 7 C5.360625 6.896875 4.72125 6.79375 4.0625 6.6875 C3.381875 6.460625 2.70125 6.23375 2 6 C0.75 2.9375 0.75 2.9375 0 0 Z " fill="#815F98" transform="translate(179,293)"/>
<path d="M0 0 C0.33 0.99 0.66 1.98 1 3 C1.66 3 2.32 3 3 3 C3.33 3.99 3.66 4.98 4 6 C3.01 7.485 3.01 7.485 2 9 C1.01 9 0.02 9 -1 9 C-0.67 6.03 -0.34 3.06 0 0 Z " fill="#8353A7" transform="translate(372,234)"/>
<path d="M0 0 C3.79133356 0.54161908 5.66109564 1.99283725 8 5 C8.25 7.75 8.25 7.75 8 10 C4.71211176 6.88983545 2.16264012 3.98381075 0 0 Z " fill="#6E4794" transform="translate(349,143)"/>
<path d="M0 0 C1.71875 1.546875 1.71875 1.546875 3 3 C1.58249437 2.88490339 0.16598831 2.75746342 -1.25 2.625 C-2.03890625 2.55539062 -2.8278125 2.48578125 -3.640625 2.4140625 C-6.085877 1.98492887 -7.84836903 1.21399362 -10 0 C-6.22941703 -1.25686099 -3.86146303 -0.82745636 0 0 Z " fill="#9D7BB5" transform="translate(237,353)"/>
<path d="M0 0 C2.72869407 0.03287583 5.2966618 0.56397771 8 1 C7.67 2.32 7.34 3.64 7 5 C4.03 4.01 1.06 3.02 -2 2 C-1.34 1.34 -0.68 0.68 0 0 Z " fill="#581A88" transform="translate(191,336)"/>
<path d="M0 0 C0.99 0 1.98 0 3 0 C1.44499019 3.81684226 -1.03595495 6.19195732 -4 9 C-4 8.34 -4 7.68 -4 7 C-4.66 6.67 -5.32 6.34 -6 6 C-4.68 6 -3.36 6 -2 6 C-1.855625 5.38125 -1.71125 4.7625 -1.5625 4.125 C-1 2 -1 2 0 0 Z " fill="#7D5498" transform="translate(374,297)"/>
<path d="M0 0 C1.42944945 2.35438733 2.08661261 3.48032433 1.625 6.25 C1.41875 6.8275 1.2125 7.405 1 8 C0.34 8 -0.32 8 -1 8 C-1.66 6.02 -2.32 4.04 -3 2 C-2.01 1.34 -1.02 0.68 0 0 Z " fill="#6E3C94" transform="translate(149,238)"/>
<path d="M0 0 C0.66 0.66 1.32 1.32 2 2 C1.9765625 4.6015625 1.9765625 4.6015625 1.625 7.625 C1.51414062 8.62789062 1.40328125 9.63078125 1.2890625 10.6640625 C1.19367188 11.43492187 1.09828125 12.20578125 1 13 C-0.9078584 9.8250906 -1.1609041 7.89414789 -0.625 4.25 C-0.51414062 3.45078125 -0.40328125 2.6515625 -0.2890625 1.828125 C-0.19367188 1.22484375 -0.09828125 0.6215625 0 0 Z " fill="#9966B2" transform="translate(401,230)"/>
<path d="M0 0 C2.34914492 2.34914492 2.73140357 3.95679446 3.625 7.125 C3.88539063 8.03507813 4.14578125 8.94515625 4.4140625 9.8828125 C4.70410156 10.93082031 4.70410156 10.93082031 5 12 C4.01 12 3.02 12 2 12 C0.86235649 7.73383684 0 4.43513689 0 0 Z " fill="#78469A" transform="translate(391,156)"/>
<path d="M0 0 C0.99 0.33 1.98 0.66 3 1 C3.33 2.65 3.66 4.3 4 6 C2.68 6.33 1.36 6.66 0 7 C-0.66 5.35 -1.32 3.7 -2 2 C-1.34 2 -0.68 2 0 2 C0 1.34 0 0.68 0 0 Z " fill="#713895" transform="translate(363,159)"/>
<path d="M0 0 C5.30479934 0 6.18982627 1.5362057 10 5 C8.68 5.33 7.36 5.66 6 6 C6 5.34 6 4.68 6 4 C4.02 3.34 2.04 2.68 0 2 C0 1.34 0 0.68 0 0 Z " fill="#713F92" transform="translate(358,114)"/>
<path d="M0 0 C6.6 0.6 6.6 0.6 9 3 C6 5 6 5 3 5 C2.67 4.34 2.34 3.68 2 3 C1.01 2.34 0.02 1.68 -1 1 C-0.67 0.67 -0.34 0.34 0 0 Z " fill="#754094" transform="translate(305,79)"/>
<path d="M0 0 C0.66 0 1.32 0 2 0 C1.54300722 5.02692063 -0.99241748 8.14896261 -4 12 C-4.33 11.34 -4.66 10.68 -5 10 C-4.04060332 8.30963442 -3.03357147 6.64605826 -2 5 C-1.30177383 3.34630643 -0.62501395 1.68272986 0 0 Z " fill="#5B1B89" transform="translate(360,271)"/>
<path d="M0 0 C1.9375 0.6875 1.9375 0.6875 4 2 C4.75 4.625 4.75 4.625 5 7 C2 7 2 7 0.25 5.75 C-1 4 -1 4 -0.6875 1.8125 C-0.460625 1.214375 -0.23375 0.61625 0 0 Z " fill="#631C86" transform="translate(131,269)"/>
<path d="M0 0 C0.66 0 1.32 0 2 0 C2 0.66 2 1.32 2 2 C1.34 2 0.68 2 0 2 C-0.33 2.99 -0.66 3.98 -1 5 C-1.66 5 -2.32 5 -3 5 C-3.33 5.66 -3.66 6.32 -4 7 C-4.66 6.67 -5.32 6.34 -6 6 C-5.67 4.68 -5.34 3.36 -5 2 C-4.360625 1.855625 -3.72125 1.71125 -3.0625 1.5625 C-1.02454854 1.18992819 -1.02454854 1.18992819 0 0 Z " fill="#61168C" transform="translate(166,145)"/>
<path d="M0 0 C-4.75 4.875 -4.75 4.875 -7 6 C-7 4.35 -7 2.7 -7 1 C-3.375 -1.125 -3.375 -1.125 0 0 Z " fill="#6B3B8D" transform="translate(189,126)"/>
<path d="M0 0 C2.8125 0.1875 2.8125 0.1875 6 1 C7.875 3.5625 7.875 3.5625 9 6 C6.61435923 5.42415568 4.33317216 4.77772405 2 4 C2 3.34 2 2.68 2 2 C1.34 2 0.68 2 0 2 C0 1.34 0 0.68 0 0 Z " fill="#64208B" transform="translate(202,314)"/>
<path d="M0 0 C1.31223496 3.93670488 0.24296256 6.12488144 -1 10 C-2.32 10.33 -3.64 10.66 -5 11 C-3.55049545 7.2089881 -1.84827434 3.6125362 0 0 Z " fill="#753F94" transform="translate(364,261)"/>
<path d="M0 0 C2.64 1.98 5.28 3.96 8 6 C6 7 6 7 2.875 6.0625 C1.92625 5.711875 0.9775 5.36125 0 5 C0 3.35 0 1.7 0 0 Z " fill="#7B4E94" transform="translate(347,100)"/>
<path d="M0 0 C0.99 0.33 1.98 0.66 3 1 C-0.78332024 4.78332024 -2.58974863 5.39886096 -8 6 C-5.63055987 3.38114512 -3.16266898 1.58133449 0 0 Z " fill="#9D6FB1" transform="translate(193,87)"/>
<path d="M0 0 C1.65 0.33 3.3 0.66 5 1 C-0.14285714 5.42857143 -0.14285714 5.42857143 -4 6 C-3.67 4.68 -3.34 3.36 -3 2 C-3 2.66 -3 3.32 -3 4 C-1.68 3.67 -0.36 3.34 1 3 C0.67 2.01 0.34 1.02 0 0 Z " fill="#753596" transform="translate(328,336)"/>
<path d="M0 0 C-0.75 5.75 -0.75 5.75 -3 8 C-3 6.35 -3 4.7 -3 3 C-3.66 3 -4.32 3 -5 3 C-5 2.34 -5 1.68 -5 1 C-2 0 -2 0 0 0 Z " fill="#641A90" transform="translate(398,247)"/>
<path d="M0 0 C1.13643966 3.40931897 0.86747764 4.00335456 -0.4375 7.1875 C-0.86869141 8.26064453 -0.86869141 8.26064453 -1.30859375 9.35546875 C-1.53675781 9.89816406 -1.76492187 10.44085938 -2 11 C-2.33 11 -2.66 11 -3 11 C-2.8864371 9.35333797 -2.75882619 7.70763918 -2.625 6.0625 C-2.55539063 5.14597656 -2.48578125 4.22945312 -2.4140625 3.28515625 C-2.27742187 2.53105469 -2.14078125 1.77695313 -2 1 C-1.34 0.67 -0.68 0.34 0 0 Z " fill="#6C458F" transform="translate(153,173)"/>
<path d="M0 0 C0 0.66 0 1.32 0 2 C1.32 2.33 2.64 2.66 4 3 C0.42355152 4.2380014 -2.33694766 3.74926071 -6 3 C-3.375 0 -3.375 0 0 0 Z " fill="#62218A" transform="translate(235,325)"/>
<path d="M0 0 C0.66 0.33 1.32 0.66 2 1 C1.88590407 2.45922693 1.75834456 3.91740598 1.625 5.375 C1.55539062 6.18710937 1.48578125 6.99921875 1.4140625 7.8359375 C1 10 1 10 -1 12 C-1.02687279 10.18757948 -1.04633715 8.37504767 -1.0625 6.5625 C-1.07410156 5.55316406 -1.08570313 4.54382813 -1.09765625 3.50390625 C-1 1 -1 1 0 0 Z " fill="#7D3F99" transform="translate(394,256)"/>
<path d="M0 0 C3.29148243 1.13499394 3.9959869 1.99283376 5.75 5.125 C6.1625 6.07375 6.575 7.0225 7 8 C6.01 8 5.02 8 4 8 C0 2.74285714 0 2.74285714 0 0 Z " fill="#8760A0" transform="translate(377,133)"/>
<path d="M0 0 C-0.33 1.65 -0.66 3.3 -1 5 C-1.99 5.33 -2.98 5.66 -4 6 C-4.33 4.68 -4.66 3.36 -5 2 C-2 0 -2 0 0 0 Z " fill="#6C3695" transform="translate(201,114)"/>
<path d="M0 0 C0.66 0 1.32 0 2 0 C0.6302836 3.99500618 -1.25722422 6.80009492 -4 10 C-3.52651586 5.8333396 -2.95303159 3.07115285 0 0 Z " fill="#7C5299" transform="translate(304,369)"/>
<path d="M0 0 C1.98 0.66 3.96 1.32 6 2 C6 2.99 6 3.98 6 5 C3.83125748 4.49396008 2.00032373 4.00016187 0 3 C0 2.01 0 1.02 0 0 Z " fill="#643081" transform="translate(173,290)"/>
<path d="M0 0 C1.485 0.99 1.485 0.99 3 2 C2.67 3.32 2.34 4.64 2 6 C1.67 5.67 1.34 5.34 1 5 C0.34 6.32 -0.32 7.64 -1 9 C-1.125 2.25 -1.125 2.25 0 0 Z " fill="#894EAC" transform="translate(374,194)"/>
<path d="M0 0 C0.66 0.99 1.32 1.98 2 3 C1.01 4.32 0.02 5.64 -1 7 C-1.99 6.67 -2.98 6.34 -4 6 C-2.68 4.02 -1.36 2.04 0 0 Z " fill="#8A58A5" transform="translate(139,138)"/>
<path d="M0 0 C-2.64 1.65 -5.28 3.3 -8 5 C-7.67 3.35 -7.34 1.7 -7 0 C-4 -1 -4 -1 0 0 Z " fill="#7F59A2" transform="translate(197,121)"/>
<path d="M0 0 C0.33 0.66 0.66 1.32 1 2 C3.32156597 2.40729228 5.6568787 2.74438677 8 3 C8 3.99 8 4.98 8 6 C5.03 5.01 2.06 4.02 -1 3 C-0.67 2.01 -0.34 1.02 0 0 Z " fill="#5F188A" transform="translate(305,105)"/>
<path d="M0 0 C2.475 0.495 2.475 0.495 5 1 C4.67 2.98 4.34 4.96 4 7 C2 5.1875 2 5.1875 0 3 C0 2.01 0 1.02 0 0 Z " fill="#784296" transform="translate(264,24)"/>
<path d="M0 0 C3.63 0.33 7.26 0.66 11 1 C11 1.33 11 1.66 11 2 C3.57142857 3.28571429 3.57142857 3.28571429 0 2 C0 1.34 0 0.68 0 0 Z " fill="#8668AC" transform="translate(235,325)"/>
<path d="M0 0 C0.33 0.99 0.66 1.98 1 3 C-0.28965176 4.37562854 -1.62689293 5.70766393 -3 7 C-3.66 7 -4.32 7 -5 7 C-5 6.01 -5 5.02 -5 4 C-2.5 1.8125 -2.5 1.8125 0 0 Z " fill="#601A8A" transform="translate(350,288)"/>
<path d="M0 0 C2.475 0.99 2.475 0.99 5 2 C5 3.98 5 5.96 5 8 C2.74754119 5.31158141 1.11786042 3.35358125 0 0 Z " fill="#956DB1" transform="translate(133,280)"/>
<path d="M0 0 C0.33 0 0.66 0 1 0 C0.67 2.64 0.34 5.28 0 8 C-0.99 8 -1.98 8 -3 8 C-2.37240135 5.07120629 -1.41377341 2.63904371 0 0 Z " fill="#5B1E81" transform="translate(393,260)"/>
<path d="M0 0 C0.33 0.66 0.66 1.32 1 2 C1.99 2 2.98 2 4 2 C4 2.66 4 3.32 4 4 C3.34 4 2.68 4 2 4 C1.67 4.99 1.34 5.98 1 7 C0.34 6.67 -0.32 6.34 -1 6 C-0.67 4.02 -0.34 2.04 0 0 Z " fill="#83519F" transform="translate(370,243)"/>
<path d="M0 0 C0.99 0.33 1.98 0.66 3 1 C3 1.66 3 2.32 3 3 C3.66 3.33 4.32 3.66 5 4 C4.67 4.99 4.34 5.98 4 7 C3.34 7 2.68 7 2 7 C1.67 7.66 1.34 8.32 1 9 C1.020625 7.88625 1.04125 6.7725 1.0625 5.625 C1.26380718 2.16784079 1.26380718 2.16784079 0 0 Z " fill="#5A1D81" transform="translate(372,187)"/>
<path d="M0 0 C0.99 0 1.98 0 3 0 C3 1.98 3 3.96 3 6 C2.01 6 1.02 6 0 6 C0 4.02 0 2.04 0 0 Z " fill="#72368E" transform="translate(397,178)"/>
<path d="M0 0 C2.0625 0.4375 2.0625 0.4375 4 1 C2.69593116 3.01920337 1.36176581 5.01924973 0 7 C-0.33 7 -0.66 7 -1 7 C-1.04254356 5.00045254 -1.04080783 2.99958364 -1 1 C-0.67 0.67 -0.34 0.34 0 0 Z " fill="#774B99" transform="translate(320,342)"/>
<path d="M0 0 C0.8125 1.6875 0.8125 1.6875 1 4 C-1.4375 6.75 -1.4375 6.75 -4 9 C-4 5.00095031 -2.27413033 3.19799578 0 0 Z " fill="#825D99" transform="translate(358,272)"/>
<path d="M0 0 C0.99 0 1.98 0 3 0 C2.50168276 3.68754757 1.89932357 5.60490662 -1 8 C-0.67 5.36 -0.34 2.72 0 0 Z " fill="#551C7C" transform="translate(365,259)"/>
<path d="M0 0 C-0.33 3.3 -0.66 6.6 -1 10 C-2.88343932 6.23312136 -3.22057835 4.97041037 -3 1 C-1 0 -1 0 0 0 Z " fill="#8A5DA4" transform="translate(122,234)"/>
<path d="M0 0 C1.65 0 3.3 0 5 0 C5 0.99 5 1.98 5 3 C3.35 3.33 1.7 3.66 0 4 C0 2.68 0 1.36 0 0 Z " fill="#63188C" transform="translate(177,128)"/>
<path d="M0 0 C0.66 0 1.32 0 2 0 C2 0.99 2 1.98 2 3 C1.0409375 3.433125 1.0409375 3.433125 0.0625 3.875 C-2.15206079 4.82823451 -2.15206079 4.82823451 -3 7 C-3.66 6.67 -4.32 6.34 -5 6 C-3.38405168 3.95880212 -1.7143618 1.95927063 0 0 Z " fill="#6B408C" transform="translate(149,125)"/>
<path d="M0 0 C1.32 0.66 2.64 1.32 4 2 C3.34 2 2.68 2 2 2 C1.67 2.99 1.34 3.98 1 5 C-0.32 5 -1.64 5 -3 5 C-2 2 -2 2 0 0 Z " fill="#581886" transform="translate(187,121)"/>
<path d="M0 0 C2.97 0.495 2.97 0.495 6 1 C6.33 2.32 6.66 3.64 7 5 C2.25 3.125 2.25 3.125 0 2 C0 1.34 0 0.68 0 0 Z " fill="#7D4696" transform="translate(311,111)"/>
<path d="M0 0 C2.64 0.66 5.28 1.32 8 2 C8 2.66 8 3.32 8 4 C5.69 3.67 3.38 3.34 1 3 C0.67 2.01 0.34 1.02 0 0 Z " fill="#601E89" transform="translate(347,105)"/>
<path d="M0 0 C0 0.99 0 1.98 0 3 C-2.97 3 -5.94 3 -9 3 C-5.87496336 0.91664224 -3.72863529 0 0 0 Z " fill="#5A1F7B" transform="translate(229,102)"/>
</svg>
